<?xml version="1.0" encoding="utf-8" standalone="no"?>
<!DOCTYPE svg PUBLIC "-//W3C//DTD SVG 1.1//EN"
  "http://www.w3.org/Graphics/SVG/1.1/DTD/svg11.dtd">
<svg xmlns:xlink="http://www.w3.org/1999/xlink" width="720pt" height="360pt" viewBox="0 0 720 360" xmlns="http://www.w3.org/2000/svg" version="1.1">
 <metadata>
  <rdf:RDF xmlns:dc="http://purl.org/dc/elements/1.1/" xmlns:cc="http://creativecommons.org/ns#" xmlns:rdf="http://www.w3.org/1999/02/22-rdf-syntax-ns#">
   <cc:Work>
    <dc:type rdf:resource="http://purl.org/dc/dcmitype/StillImage"/>
    <dc:date>2025-05-17T14:31:29.677124</dc:date>
    <dc:format>image/svg+xml</dc:format>
    <dc:creator>
     <cc:Agent>
      <dc:title>Matplotlib v3.10.3, https://matplotlib.org/</dc:title>
     </cc:Agent>
    </dc:creator>
   </cc:Work>
  </rdf:RDF>
 </metadata>
 <defs>
  <style type="text/css">*{stroke-linejoin: round; stroke-linecap: butt}</style>
 </defs>
 <g id="figure_1">
  <g id="patch_1">
   <path d="M 0 360 
L 720 360 
L 720 0 
L 0 0 
z
" style="fill: #ffffff"/>
  </g>
  <g id="axes_1">
   <g id="patch_2">
    <path d="M 50.87 318.04 
L 709.2 318.04 
L 709.2 10.8 
L 50.87 10.8 
z
" style="fill: #ffffff"/>
   </g>
   <g id="matplotlib.axis_1">
    <g id="xtick_1">
     <g id="line2d_1">
      <path d="M 79.937894 318.04 
L 79.937894 10.8 
" clip-path="url(#p5767f3db98)" style="fill: none; stroke: #b0b0b0; stroke-width: 0.8; stroke-linecap: square"/>
     </g>
     <g id="line2d_2">
      <defs>
       <path id="ma13686f898" d="M 0 0 
L 0 3.5 
" style="stroke: #000000; stroke-width: 0.8"/>
      </defs>
      <g>
       <use xlink:href="#ma13686f898" x="79.937894" y="318.04" style="stroke: #000000; stroke-width: 0.8"/>
      </g>
     </g>
     <g id="text_1">
      <text style="font-size: 10px; font-family: 'DejaVu Sans', 'Bitstream Vera Sans', 'Computer Modern Sans Serif', 'Lucida Grande', 'Verdana', 'Geneva', 'Lucid', 'Arial', 'Helvetica', 'Avant Garde', sans-serif; text-anchor: middle" x="79.937894" y="332.638438" transform="rotate(-0 79.937894 332.638438)">0.0</text>
     </g>
    </g>
    <g id="xtick_2">
     <g id="line2d_3">
      <path d="M 186.962539 318.04 
L 186.962539 10.8 
" clip-path="url(#p5767f3db98)" style="fill: none; stroke: #b0b0b0; stroke-width: 0.8; stroke-linecap: square"/>
     </g>
     <g id="line2d_4">
      <g>
       <use xlink:href="#ma13686f898" x="186.962539" y="318.04" style="stroke: #000000; stroke-width: 0.8"/>
      </g>
     </g>
     <g id="text_2">
      <text style="font-size: 10px; font-family: 'DejaVu Sans', 'Bitstream Vera Sans', 'Computer Modern Sans Serif', 'Lucida Grande', 'Verdana', 'Geneva', 'Lucid', 'Arial', 'Helvetica', 'Avant Garde', sans-serif; text-anchor: middle" x="186.962539" y="332.638438" transform="rotate(-0 186.962539 332.638438)">0.2</text>
     </g>
    </g>
    <g id="xtick_3">
     <g id="line2d_5">
      <path d="M 293.987185 318.04 
L 293.987185 10.8 
" clip-path="url(#p5767f3db98)" style="fill: none; stroke: #b0b0b0; stroke-width: 0.8; stroke-linecap: square"/>
     </g>
     <g id="line2d_6">
      <g>
       <use xlink:href="#ma13686f898" x="293.987185" y="318.04" style="stroke: #000000; stroke-width: 0.8"/>
      </g>
     </g>
     <g id="text_3">
      <text style="font-size: 10px; font-family: 'DejaVu Sans', 'Bitstream Vera Sans', 'Computer Modern Sans Serif', 'Lucida Grande', 'Verdana', 'Geneva', 'Lucid', 'Arial', 'Helvetica', 'Avant Garde', sans-serif; text-anchor: middle" x="293.987185" y="332.638438" transform="rotate(-0 293.987185 332.638438)">0.4</text>
     </g>
    </g>
    <g id="xtick_4">
     <g id="line2d_7">
      <path d="M 401.011831 318.04 
L 401.011831 10.8 
" clip-path="url(#p5767f3db98)" style="fill: none; stroke: #b0b0b0; stroke-width: 0.8; stroke-linecap: square"/>
     </g>
     <g id="line2d_8">
      <g>
       <use xlink:href="#ma13686f898" x="401.011831" y="318.04" style="stroke: #000000; stroke-width: 0.8"/>
      </g>
     </g>
     <g id="text_4">
      <text style="font-size: 10px; font-family: 'DejaVu Sans', 'Bitstream Vera Sans', 'Computer Modern Sans Serif', 'Lucida Grande', 'Verdana', 'Geneva', 'Lucid', 'Arial', 'Helvetica', 'Avant Garde', sans-serif; text-anchor: middle" x="401.011831" y="332.638438" transform="rotate(-0 401.011831 332.638438)">0.6</text>
     </g>
    </g>
    <g id="xtick_5">
     <g id="line2d_9">
      <path d="M 508.036476 318.04 
L 508.036476 10.8 
" clip-path="url(#p5767f3db98)" style="fill: none; stroke: #b0b0b0; stroke-width: 0.8; stroke-linecap: square"/>
     </g>
     <g id="line2d_10">
      <g>
       <use xlink:href="#ma13686f898" x="508.036476" y="318.04" style="stroke: #000000; stroke-width: 0.8"/>
      </g>
     </g>
     <g id="text_5">
      <text style="font-size: 10px; font-family: 'DejaVu Sans', 'Bitstream Vera Sans', 'Computer Modern Sans Serif', 'Lucida Grande', 'Verdana', 'Geneva', 'Lucid', 'Arial', 'Helvetica', 'Avant Garde', sans-serif; text-anchor: middle" x="508.036476" y="332.638438" transform="rotate(-0 508.036476 332.638438)">0.8</text>
     </g>
    </g>
    <g id="xtick_6">
     <g id="line2d_11">
      <path d="M 615.061122 318.04 
L 615.061122 10.8 
" clip-path="url(#p5767f3db98)" style="fill: none; stroke: #b0b0b0; stroke-width: 0.8; stroke-linecap: square"/>
     </g>
     <g id="line2d_12">
      <g>
       <use xlink:href="#ma13686f898" x="615.061122" y="318.04" style="stroke: #000000; stroke-width: 0.8"/>
      </g>
     </g>
     <g id="text_6">
      <text style="font-size: 10px; font-family: 'DejaVu Sans', 'Bitstream Vera Sans', 'Computer Modern Sans Serif', 'Lucida Grande', 'Verdana', 'Geneva', 'Lucid', 'Arial', 'Helvetica', 'Avant Garde', sans-serif; text-anchor: middle" x="615.061122" y="332.638438" transform="rotate(-0 615.061122 332.638438)">1.0</text>
     </g>
    </g>
    <g id="text_7">
     <text style="font-size: 10px; font-family: 'DejaVu Sans', 'Bitstream Vera Sans', 'Computer Modern Sans Serif', 'Lucida Grande', 'Verdana', 'Geneva', 'Lucid', 'Arial', 'Helvetica', 'Avant Garde', sans-serif; text-anchor: middle" x="380.035" y="346.316563" transform="rotate(-0 380.035 346.316563)">Number of simulated time steps</text>
    </g>
    <g id="text_8">
     <text style="font-size: 10px; font-family: 'DejaVu Sans', 'Bitstream Vera Sans', 'Computer Modern Sans Serif', 'Lucida Grande', 'Verdana', 'Geneva', 'Lucid', 'Arial', 'Helvetica', 'Avant Garde', sans-serif; text-anchor: end" x="709.2" y="345.316563" transform="rotate(-0 709.2 345.316563)">1e7</text>
    </g>
   </g>
   <g id="matplotlib.axis_2">
    <g id="ytick_1">
     <g id="line2d_13">
      <path d="M 50.87 299.803569 
L 709.2 299.803569 
" clip-path="url(#p5767f3db98)" style="fill: none; stroke: #b0b0b0; stroke-width: 0.8; stroke-linecap: square"/>
     </g>
     <g id="line2d_14">
      <defs>
       <path id="m0fc9483f07" d="M 0 0 
L -3.5 0 
" style="stroke: #000000; stroke-width: 0.8"/>
      </defs>
      <g>
       <use xlink:href="#m0fc9483f07" x="50.87" y="299.803569" style="stroke: #000000; stroke-width: 0.8"/>
      </g>
     </g>
     <g id="text_9">
      <text style="font-size: 10px; font-family: 'DejaVu Sans', 'Bitstream Vera Sans', 'Computer Modern Sans Serif', 'Lucida Grande', 'Verdana', 'Geneva', 'Lucid', 'Arial', 'Helvetica', 'Avant Garde', sans-serif; text-anchor: end" x="43.87" y="303.602788" transform="rotate(-0 43.87 303.602788)">0</text>
     </g>
    </g>
    <g id="ytick_2">
     <g id="line2d_15">
      <path d="M 50.87 238.097429 
L 709.2 238.097429 
" clip-path="url(#p5767f3db98)" style="fill: none; stroke: #b0b0b0; stroke-width: 0.8; stroke-linecap: square"/>
     </g>
     <g id="line2d_16">
      <g>
       <use xlink:href="#m0fc9483f07" x="50.87" y="238.097429" style="stroke: #000000; stroke-width: 0.8"/>
      </g>
     </g>
     <g id="text_10">
      <text style="font-size: 10px; font-family: 'DejaVu Sans', 'Bitstream Vera Sans', 'Computer Modern Sans Serif', 'Lucida Grande', 'Verdana', 'Geneva', 'Lucid', 'Arial', 'Helvetica', 'Avant Garde', sans-serif; text-anchor: end" x="43.87" y="241.896648" transform="rotate(-0 43.87 241.896648)">200</text>
     </g>
    </g>
    <g id="ytick_3">
     <g id="line2d_17">
      <path d="M 50.87 176.391289 
L 709.2 176.391289 
" clip-path="url(#p5767f3db98)" style="fill: none; stroke: #b0b0b0; stroke-width: 0.8; stroke-linecap: square"/>
     </g>
     <g id="line2d_18">
      <g>
       <use xlink:href="#m0fc9483f07" x="50.87" y="176.391289" style="stroke: #000000; stroke-width: 0.8"/>
      </g>
     </g>
     <g id="text_11">
      <text style="font-size: 10px; font-family: 'DejaVu Sans', 'Bitstream Vera Sans', 'Computer Modern Sans Serif', 'Lucida Grande', 'Verdana', 'Geneva', 'Lucid', 'Arial', 'Helvetica', 'Avant Garde', sans-serif; text-anchor: end" x="43.87" y="180.190508" transform="rotate(-0 43.87 180.190508)">400</text>
     </g>
    </g>
    <g id="ytick_4">
     <g id="line2d_19">
      <path d="M 50.87 114.685149 
L 709.2 114.685149 
" clip-path="url(#p5767f3db98)" style="fill: none; stroke: #b0b0b0; stroke-width: 0.8; stroke-linecap: square"/>
     </g>
     <g id="line2d_20">
      <g>
       <use xlink:href="#m0fc9483f07" x="50.87" y="114.685149" style="stroke: #000000; stroke-width: 0.8"/>
      </g>
     </g>
     <g id="text_12">
      <text style="font-size: 10px; font-family: 'DejaVu Sans', 'Bitstream Vera Sans', 'Computer Modern Sans Serif', 'Lucida Grande', 'Verdana', 'Geneva', 'Lucid', 'Arial', 'Helvetica', 'Avant Garde', sans-serif; text-anchor: end" x="43.87" y="118.484368" transform="rotate(-0 43.87 118.484368)">600</text>
     </g>
    </g>
    <g id="ytick_5">
     <g id="line2d_21">
      <path d="M 50.87 52.979009 
L 709.2 52.979009 
" clip-path="url(#p5767f3db98)" style="fill: none; stroke: #b0b0b0; stroke-width: 0.8; stroke-linecap: square"/>
     </g>
     <g id="line2d_22">
      <g>
       <use xlink:href="#m0fc9483f07" x="50.87" y="52.979009" style="stroke: #000000; stroke-width: 0.8"/>
      </g>
     </g>
     <g id="text_13">
      <text style="font-size: 10px; font-family: 'DejaVu Sans', 'Bitstream Vera Sans', 'Computer Modern Sans Serif', 'Lucida Grande', 'Verdana', 'Geneva', 'Lucid', 'Arial', 'Helvetica', 'Avant Garde', sans-serif; text-anchor: end" x="43.87" y="56.778228" transform="rotate(-0 43.87 56.778228)">800</text>
     </g>
    </g>
    <g id="text_14">
     <text style="font-size: 10px; font-family: 'DejaVu Sans', 'Bitstream Vera Sans', 'Computer Modern Sans Serif', 'Lucida Grande', 'Verdana', 'Geneva', 'Lucid', 'Arial', 'Helvetica', 'Avant Garde', sans-serif; text-anchor: middle" x="18.702813" y="164.42" transform="rotate(-90 18.702813 164.42)">Mean episode return</text>
    </g>
   </g>
   <g id="line2d_23">
    <path d="M 80.794091 299.43405 
L 81.650288 298.418888 
L 82.506485 296.362076 
L 83.362682 294.665017 
L 84.21888 294.324664 
L 85.075077 290.877691 
L 86.787471 289.407084 
L 88.499865 288.596875 
L 89.356063 285.959848 
L 90.21226 279.817142 
L 91.068457 278.296629 
L 91.924654 279.305415 
L 92.780851 270.505351 
L 93.637048 269.943978 
L 94.493246 267.98635 
L 95.349443 268.338219 
L 96.20564 265.897542 
L 97.061837 254.995181 
L 97.918034 253.587835 
L 98.774231 249.068493 
L 99.630429 242.446739 
L 100.486626 234.001451 
L 101.342823 221.398375 
L 102.19902 210.930504 
L 103.055217 173.206337 
L 103.911414 169.658366 
L 104.767612 159.502858 
L 105.623809 173.420655 
L 106.480006 150.499831 
L 108.1924 186.24995 
L 109.048597 154.592853 
L 109.904795 150.093039 
L 110.760992 111.738572 
L 111.617189 125.796811 
L 112.473386 127.761303 
L 113.329583 131.380776 
L 115.041978 110.81217 
L 115.898175 107.21955 
L 116.754372 125.53615 
L 117.610569 116.162251 
L 118.466766 143.790917 
L 119.322963 148.812535 
L 120.17916 120.713474 
L 121.035358 131.327089 
L 121.891555 111.634153 
L 122.747752 88.311047 
L 123.603949 126.652427 
L 124.460146 130.915758 
L 125.316343 98.59214 
L 126.172541 104.174937 
L 127.028738 103.626572 
L 127.884935 114.610785 
L 128.741132 107.259359 
L 129.597329 97.140083 
L 130.453526 94.017076 
L 131.309724 81.473488 
L 132.165921 99.003978 
L 133.022118 106.992558 
L 133.878315 119.496582 
L 134.734512 129.946967 
L 135.590709 117.432831 
L 136.446907 137.281332 
L 138.159301 83.550251 
L 139.015498 106.457281 
L 140.727892 119.98497 
L 141.58409 125.375745 
L 142.440287 111.409496 
L 143.296484 105.40454 
L 144.152681 124.775651 
L 145.008878 111.146198 
L 145.865075 115.026013 
L 146.721273 106.255711 
L 147.57747 77.56842 
L 148.433667 100.35058 
L 149.289864 126.305405 
L 150.146061 128.69535 
L 151.002258 105.148134 
L 151.858456 109.311227 
L 153.57085 92.210352 
L 154.427047 101.881897 
L 155.283244 102.27933 
L 156.139441 90.656287 
L 156.995639 115.547016 
L 157.851836 78.46682 
L 158.708033 102.452106 
L 159.56423 107.398729 
L 160.420427 105.149133 
L 161.276624 103.240927 
L 162.132822 85.05511 
L 162.989019 100.391331 
L 163.845216 99.580703 
L 165.55761 121.055882 
L 166.413807 91.895814 
L 167.270005 81.09643 
L 168.126202 99.654277 
L 168.982399 81.285477 
L 169.838596 108.37283 
L 170.694793 78.955358 
L 171.55099 129.088735 
L 172.407188 86.633035 
L 173.263385 67.121274 
L 174.119582 68.581126 
L 174.975779 105.6865 
L 175.831976 105.931589 
L 176.688173 89.973335 
L 177.544371 86.313582 
L 178.400568 97.781908 
L 179.256765 89.978194 
L 180.112962 112.59769 
L 180.969159 87.126074 
L 181.825356 87.608454 
L 182.681554 105.596148 
L 183.537751 99.930568 
L 184.393948 99.021924 
L 185.250145 81.857494 
L 186.106342 102.316974 
L 186.962539 128.589651 
L 188.674934 91.162979 
L 189.531131 117.092965 
L 190.387328 107.364494 
L 191.243525 119.728959 
L 192.099722 128.14787 
L 192.955919 99.122634 
L 193.812117 144.252725 
L 194.668314 134.365261 
L 195.524511 107.829568 
L 196.380708 56.03976 
L 197.236905 75.92711 
L 198.093102 80.517088 
L 198.9493 67.014727 
L 199.805497 85.459398 
L 200.661694 59.802162 
L 201.517891 80.654782 
L 202.374088 68.785954 
L 203.230285 73.027818 
L 204.086483 85.141018 
L 204.94268 70.838764 
L 205.798877 94.024703 
L 206.655074 65.143544 
L 207.511271 96.328363 
L 208.367468 105.839334 
L 209.223666 63.297877 
L 210.079863 92.236038 
L 210.93606 86.592962 
L 211.792257 95.876847 
L 212.648454 58.924552 
L 213.504651 69.173481 
L 214.360849 97.052876 
L 215.217046 99.026482 
L 216.073243 105.973281 
L 216.92944 101.760097 
L 218.641834 51.985022 
L 219.498032 71.753283 
L 220.354229 81.415337 
L 221.210426 68.744167 
L 222.066623 102.440506 
L 222.92282 93.213698 
L 223.779017 73.25946 
L 224.635215 75.306207 
L 225.491412 79.381151 
L 226.347609 76.049531 
L 227.203806 55.855723 
L 228.060003 82.574643 
L 228.9162 54.900999 
L 229.772398 94.089689 
L 230.628595 93.665177 
L 231.484792 72.806419 
L 232.340989 93.209499 
L 233.197186 67.449483 
L 234.053383 75.634755 
L 234.909581 60.500292 
L 235.765778 63.039682 
L 236.621975 91.763092 
L 237.478172 73.712728 
L 238.334369 103.215392 
L 239.190566 70.558386 
L 240.046764 51.800928 
L 240.902961 53.118643 
L 241.759158 71.867532 
L 242.615355 53.483912 
L 243.471552 50.063823 
L 244.327749 100.439256 
L 245.183947 103.563243 
L 246.040144 83.594165 
L 246.896341 124.570522 
L 247.752538 95.77964 
L 248.608735 96.148092 
L 249.464932 83.543547 
L 250.32113 61.112778 
L 251.177327 96.28959 
L 252.033524 71.435977 
L 252.889721 79.974692 
L 253.745918 55.7649 
L 254.602115 76.833268 
L 255.458313 61.398428 
L 256.31451 75.924379 
L 257.170707 76.269555 
L 258.026904 54.524864 
L 258.883101 71.39726 
L 259.739298 68.827514 
L 260.595496 87.617606 
L 261.451693 63.84466 
L 262.30789 49.553441 
L 263.164087 74.482303 
L 264.020284 74.832432 
L 264.876481 74.755488 
L 265.732679 66.324562 
L 266.588876 74.176126 
L 267.445073 68.839208 
L 268.30127 85.80721 
L 269.157467 98.474539 
L 270.013664 82.973997 
L 270.869861 95.509356 
L 271.726059 56.48058 
L 272.582256 58.826442 
L 273.438453 69.259916 
L 274.29465 62.068048 
L 275.150847 66.374333 
L 276.007044 62.212314 
L 276.863242 39.733468 
L 277.719439 106.389375 
L 278.575636 112.997269 
L 279.431833 110.332294 
L 280.28803 96.0007 
L 281.144227 61.64378 
L 282.000425 70.901246 
L 282.856622 64.891789 
L 283.712819 43.62558 
L 284.569016 51.407807 
L 285.425213 50.656159 
L 286.28141 48.562372 
L 287.137608 57.045724 
L 287.993805 51.401292 
L 288.850002 84.571374 
L 289.706199 46.001119 
L 290.562396 88.417368 
L 291.418593 47.215526 
L 292.274791 65.084395 
L 293.130988 75.577922 
L 293.987185 64.172211 
L 294.843382 93.463664 
L 295.699579 116.853677 
L 296.555776 94.438801 
L 297.411974 86.502572 
L 298.268171 74.888756 
L 299.124368 72.452637 
L 299.980565 53.074766 
L 300.836762 82.889577 
L 301.692959 66.844379 
L 302.549157 75.022722 
L 303.405354 53.505775 
L 304.261551 73.093218 
L 305.117748 67.857763 
L 305.973945 53.47444 
L 306.830142 73.191084 
L 307.68634 53.808072 
L 308.542537 41.495637 
L 309.398734 48.894197 
L 310.254931 50.897086 
L 311.111128 40.517487 
L 312.823523 110.314272 
L 313.67972 55.916566 
L 314.535917 93.302864 
L 315.392114 56.349402 
L 316.248311 94.199814 
L 317.104508 58.228984 
L 317.960706 46.636974 
L 318.816903 75.572744 
L 319.6731 43.096498 
L 321.385494 66.6172 
L 322.241691 57.795282 
L 323.097889 56.170788 
L 323.954086 40.112861 
L 324.810283 56.569633 
L 325.66648 59.487022 
L 326.522677 57.925857 
L 327.378874 72.903362 
L 328.235072 50.69401 
L 329.091269 71.45445 
L 329.947466 59.365881 
L 330.803663 45.194484 
L 331.65986 55.484164 
L 332.516057 49.063998 
L 333.372255 59.603512 
L 334.228452 41.081614 
L 335.084649 36.399099 
L 335.940846 38.859248 
L 336.797043 64.716188 
L 338.509438 44.550852 
L 339.365635 60.510273 
L 340.221832 54.285952 
L 341.078029 46.372961 
L 341.934226 40.933073 
L 342.790423 52.118592 
L 343.64662 47.333146 
L 344.502818 59.891008 
L 345.359015 47.614315 
L 346.215212 47.118884 
L 347.071409 45.713925 
L 347.927606 56.98488 
L 348.783803 61.550057 
L 349.640001 45.332875 
L 350.496198 41.550342 
L 351.352395 54.664686 
L 352.208592 46.407968 
L 353.064789 85.174368 
L 353.920986 67.690598 
L 354.777184 87.324084 
L 355.633381 71.534709 
L 356.489578 45.568322 
L 357.345775 39.946845 
L 358.201972 45.558492 
L 359.058169 56.156984 
L 359.914367 47.530874 
L 360.770564 44.05834 
L 361.626761 50.459109 
L 362.482958 42.694226 
L 363.339155 42.254196 
L 364.195352 42.330557 
L 365.05155 44.208613 
L 365.907747 35.193581 
L 366.763944 55.323119 
L 367.620141 49.26973 
L 368.476338 44.93435 
L 369.332535 63.803702 
L 370.188733 49.79416 
L 371.04493 50.130787 
L 371.901127 38.408522 
L 372.757324 50.701806 
L 373.613521 42.467799 
L 374.469718 39.805064 
L 375.325916 34.442404 
L 376.182113 57.97448 
L 377.03831 59.670325 
L 377.894507 48.370426 
L 379.606901 70.617101 
L 380.463099 50.980527 
L 381.319296 46.044299 
L 382.175493 63.911266 
L 383.03169 58.685735 
L 383.887887 38.983458 
L 384.744084 80.781214 
L 385.600282 71.65199 
L 386.456479 57.032937 
L 387.312676 35.852429 
L 388.168873 39.627656 
L 389.02507 55.852258 
L 389.881267 53.89157 
L 390.737465 45.287341 
L 391.593662 41.806315 
L 392.449859 45.896644 
L 393.306056 36.323454 
L 394.162253 50.669266 
L 395.01845 37.975235 
L 395.874648 33.628989 
L 396.730845 58.994077 
L 397.587042 72.042756 
L 398.443239 62.629783 
L 399.299436 58.305344 
L 400.155633 64.796899 
L 401.011831 49.147025 
L 401.868028 57.517747 
L 402.724225 60.244545 
L 403.580422 49.487569 
L 404.436619 64.744228 
L 405.292816 34.821891 
L 406.149014 51.202453 
L 407.005211 75.444579 
L 407.861408 58.934401 
L 408.717605 49.547434 
L 409.573802 65.144203 
L 410.429999 62.077369 
L 411.286197 31.873976 
L 412.142394 63.39836 
L 412.998591 86.208899 
L 413.854788 104.778045 
L 414.710985 62.140567 
L 415.567182 69.252478 
L 416.42338 49.456102 
L 417.279577 62.881425 
L 418.135774 79.181031 
L 418.991971 80.657512 
L 419.848168 47.837389 
L 420.704365 71.541978 
L 421.560562 56.33381 
L 422.41676 51.129746 
L 423.272957 56.482143 
L 424.129154 47.441971 
L 424.985351 57.765905 
L 425.841548 58.478761 
L 426.697745 44.00486 
L 427.553943 44.353501 
L 428.41014 47.095194 
L 429.266337 51.683892 
L 430.978731 62.736518 
L 431.834928 57.424062 
L 432.691126 49.872442 
L 433.547323 52.247699 
L 434.40352 45.837777 
L 435.259717 71.044062 
L 436.115914 59.326298 
L 436.972111 63.758997 
L 437.828309 33.489488 
L 438.684506 36.864174 
L 439.540703 33.922417 
L 440.3969 36.644527 
L 441.253097 45.454468 
L 442.109294 34.990957 
L 442.965492 42.167535 
L 443.821689 51.454057 
L 444.677886 65.742753 
L 445.534083 54.658829 
L 446.39028 36.176138 
L 448.102675 47.32695 
L 448.958872 47.403857 
L 449.815069 45.64391 
L 450.671266 28.44918 
L 451.527463 52.16744 
L 452.38366 54.96962 
L 453.239858 61.154526 
L 454.096055 29.685751 
L 454.952252 39.985976 
L 455.808449 37.790764 
L 456.664646 39.983867 
L 457.520843 42.581897 
L 458.377041 26.632024 
L 459.233238 51.781174 
L 460.089435 30.194796 
L 460.945632 32.617094 
L 461.801829 52.187495 
L 462.658026 48.743642 
L 463.514224 60.897424 
L 464.370421 37.229914 
L 465.226618 44.764944 
L 466.082815 55.786085 
L 466.939012 51.653592 
L 467.795209 38.742136 
L 468.651407 39.27651 
L 469.507604 34.173438 
L 471.219998 49.24024 
L 472.076195 38.423418 
L 472.932392 39.463466 
L 473.78859 47.622996 
L 474.644787 29.624022 
L 475.500984 40.304092 
L 476.357181 45.834539 
L 477.213378 43.167435 
L 478.069575 45.514219 
L 478.925773 60.008741 
L 479.78197 66.114293 
L 480.638167 52.24026 
L 481.494364 50.578462 
L 482.350561 60.638382 
L 483.206758 52.066693 
L 484.062956 45.239962 
L 484.919153 36.538676 
L 485.77535 34.210102 
L 486.631547 32.920747 
L 487.487744 46.918878 
L 488.343941 43.554266 
L 489.200139 43.172011 
L 490.056336 24.765455 
L 490.912533 62.175254 
L 491.76873 51.111818 
L 492.624927 54.292204 
L 493.481124 44.059169 
L 494.337321 58.128783 
L 495.193519 44.405776 
L 496.049716 55.950839 
L 496.905913 63.65567 
L 497.76211 49.799376 
L 498.618307 41.572111 
L 499.474504 62.665318 
L 500.330702 44.057549 
L 501.186899 46.785233 
L 502.043096 42.236646 
L 502.899293 51.638433 
L 503.75549 49.51623 
L 504.611687 39.961401 
L 505.467885 33.138399 
L 506.324082 36.192408 
L 507.180279 31.941091 
L 508.036476 50.836148 
L 508.892673 37.257973 
L 509.74887 46.871593 
L 510.605068 38.503601 
L 511.461265 42.084602 
L 512.317462 42.412247 
L 513.173659 37.103406 
L 514.029856 39.392906 
L 514.886053 33.19267 
L 515.742251 53.313018 
L 516.598448 35.942951 
L 517.454645 30.008631 
L 518.310842 32.534029 
L 519.167039 44.594107 
L 520.023236 31.224977 
L 520.879434 42.846777 
L 521.735631 44.780593 
L 523.448025 37.712426 
L 524.304222 40.371621 
L 525.160419 29.370177 
L 526.016617 36.088271 
L 526.872814 36.477456 
L 527.729011 33.332548 
L 528.585208 33.274529 
L 529.441405 46.451694 
L 530.297602 40.027725 
L 531.1538 38.627379 
L 532.009997 28.880227 
L 532.866194 46.536246 
L 533.722391 51.377357 
L 534.578588 46.046917 
L 535.434785 41.843393 
L 536.290983 51.968676 
L 537.14718 33.184704 
L 538.003377 50.0426 
L 538.859574 48.743397 
L 539.715771 56.726591 
L 540.571968 45.739064 
L 541.428166 50.68047 
L 542.284363 42.031404 
L 543.14056 55.741549 
L 543.996757 52.770001 
L 544.852954 38.951069 
L 545.709151 58.098201 
L 546.565349 71.008207 
L 547.421546 73.38755 
L 548.277743 53.472048 
L 549.13394 46.850502 
L 549.990137 74.090124 
L 550.846334 55.000164 
L 551.702532 80.255579 
L 552.558729 49.076314 
L 553.414926 53.621285 
L 554.271123 49.778775 
L 555.12732 40.884414 
L 555.983517 38.112401 
L 556.839715 63.101543 
L 557.695912 62.82768 
L 558.552109 38.024422 
L 559.408306 38.949845 
L 560.264503 49.549467 
L 561.1207 34.434344 
L 561.976898 41.050524 
L 562.833095 37.14926 
L 563.689292 41.779235 
L 564.545489 47.046233 
L 565.401686 26.509225 
L 566.257883 71.835444 
L 567.114081 46.968027 
L 567.970278 46.519524 
L 568.826475 45.469401 
L 569.682672 45.829944 
L 570.538869 47.331074 
L 571.395066 45.91218 
L 572.251263 37.776942 
L 573.107461 32.842372 
L 573.963658 34.052278 
L 574.819855 40.299798 
L 575.676052 52.037015 
L 576.532249 46.044563 
L 577.388446 57.739541 
L 578.244644 35.011389 
L 579.100841 41.032804 
L 579.957038 53.162764 
L 580.813235 37.202741 
L 581.669432 47.795 
L 582.525629 35.623705 
L 583.381827 48.599169 
L 584.238024 57.618551 
L 585.094221 62.028088 
L 585.950418 60.872491 
L 586.806615 86.568105 
L 587.662812 37.169391 
L 588.51901 46.934809 
L 589.375207 35.64376 
L 590.231404 34.550665 
L 591.087601 41.047906 
L 591.943798 34.158523 
L 592.799995 37.688699 
L 593.656193 31.270549 
L 594.51239 27.72463 
L 595.368587 72.697461 
L 596.224784 41.825372 
L 597.080981 49.305452 
L 597.937178 47.101428 
L 598.793376 32.162019 
L 599.649573 31.029641 
L 600.50577 56.125762 
L 601.361967 48.384474 
L 602.218164 27.710469 
L 603.074361 42.287641 
L 603.930559 47.884354 
L 604.786756 33.092752 
L 605.642953 32.506121 
L 606.49915 38.87902 
L 607.355347 29.140945 
L 608.211544 55.498005 
L 609.923939 32.972552 
L 610.780136 37.559573 
L 611.636333 37.217994 
L 612.49253 52.667917 
L 613.348727 61.786163 
L 614.204925 41.027851 
L 615.061122 46.011439 
L 615.917319 54.114908 
L 616.773516 36.574757 
L 617.629713 57.756546 
L 618.48591 44.170838 
L 619.342108 38.129745 
L 620.198305 58.956547 
L 621.054502 28.636306 
L 621.910699 47.272566 
L 622.766896 59.518319 
L 624.479291 40.242137 
L 625.335488 50.565751 
L 626.191685 37.067871 
L 627.047882 42.415222 
L 627.904079 55.16601 
L 628.760276 51.057471 
L 629.616474 58.662987 
L 630.472671 74.225897 
L 631.328868 46.226492 
L 632.185065 30.824475 
L 633.041262 62.64031 
L 633.897459 63.664389 
L 634.753657 69.719718 
L 635.609854 44.598438 
L 636.466051 65.019766 
L 637.322248 40.863982 
L 638.178445 38.072498 
L 639.034642 40.355614 
L 639.89084 60.768807 
L 640.747037 70.697416 
L 642.459431 40.358514 
L 643.315628 43.091357 
L 644.171825 62.942118 
L 645.028022 46.741638 
L 645.88422 55.546721 
L 646.740417 56.583813 
L 647.596614 61.258343 
L 648.452811 69.023283 
L 649.309008 45.664926 
L 651.021403 35.717409 
L 651.8776 35.821132 
L 652.733797 40.029627 
L 653.589994 49.91274 
L 654.446191 44.653915 
L 655.302388 49.489415 
L 656.158586 44.676833 
L 657.014783 61.044402 
L 657.87098 43.282607 
L 658.727177 62.567772 
L 659.583374 68.615361 
L 661.295769 35.067544 
L 662.151966 42.142508 
L 663.008163 45.524313 
L 663.86436 32.923045 
L 664.720557 40.188148 
L 665.576754 41.44259 
L 666.432952 49.526117 
L 667.289149 34.857444 
L 668.145346 39.757817 
L 669.001543 51.269266 
L 669.85774 59.041626 
L 670.713937 35.364004 
L 671.570135 43.073241 
L 672.426332 37.396307 
L 673.282529 41.790911 
L 674.138726 52.753242 
L 674.994923 51.605837 
L 675.85112 62.941007 
L 676.707318 68.406561 
L 677.563515 45.744582 
L 678.419712 43.83794 
L 679.275909 56.759188 
L 679.275909 56.759188 
" clip-path="url(#p5767f3db98)" style="fill: none; stroke: #1f77b4; stroke-width: 1.5; stroke-linecap: square"/>
   </g>
   <g id="line2d_24">
    <path d="M 80.794091 304.074545 
L 81.650288 294.355094 
L 82.506485 293.098777 
L 83.362682 293.408493 
L 84.21888 292.904912 
L 85.075077 291.924739 
L 85.931274 293.053934 
L 86.787471 293.266424 
L 87.643668 292.019 
L 88.499865 293.494212 
L 89.356063 293.892182 
L 90.21226 292.926369 
L 91.068457 292.799381 
L 91.924654 292.033415 
L 92.780851 291.05275 
L 93.637048 289.265445 
L 94.493246 289.589498 
L 95.349443 288.671417 
L 96.20564 290.154464 
L 97.061837 289.246651 
L 97.918034 286.886685 
L 98.774231 286.308232 
L 99.630429 283.457898 
L 100.486626 288.023041 
L 101.342823 285.16541 
L 102.19902 280.059617 
L 103.055217 285.521915 
L 103.911414 284.525973 
L 104.767612 283.211542 
L 105.623809 282.152392 
L 106.480006 273.691431 
L 107.336203 275.686984 
L 108.1924 269.341652 
L 109.048597 267.669148 
L 109.904795 271.186711 
L 110.760992 253.348245 
L 111.617189 272.815094 
L 112.473386 258.900969 
L 113.329583 264.932611 
L 114.18578 258.030468 
L 115.041978 258.86906 
L 115.898175 267.400403 
L 116.754372 255.172162 
L 117.610569 262.389222 
L 118.466766 263.702768 
L 119.322963 260.912579 
L 120.17916 272.971377 
L 121.035358 264.851576 
L 121.891555 262.083469 
L 122.747752 257.623474 
L 123.603949 259.204886 
L 124.460146 244.517303 
L 125.316343 258.137274 
L 126.172541 246.537403 
L 127.028738 244.367406 
L 127.884935 249.375169 
L 128.741132 257.369054 
L 129.597329 257.352855 
L 130.453526 253.937785 
L 131.309724 256.568445 
L 132.165921 259.912324 
L 133.022118 258.927371 
L 133.878315 251.180042 
L 134.734512 237.92735 
L 135.590709 253.324876 
L 136.446907 250.139853 
L 137.303104 259.885014 
L 138.159301 264.685887 
L 139.015498 245.619974 
L 139.871695 243.585816 
L 140.727892 227.397733 
L 141.58409 218.027276 
L 142.440287 232.38005 
L 143.296484 243.627316 
L 144.152681 243.618743 
L 145.008878 239.222849 
L 145.865075 251.46269 
L 146.721273 260.561207 
L 147.57747 262.204114 
L 148.433667 264.948098 
L 149.289864 257.669751 
L 150.146061 251.94709 
L 151.002258 240.243863 
L 151.858456 244.140928 
L 152.714653 239.965463 
L 153.57085 233.809415 
L 154.427047 241.08931 
L 155.283244 237.767892 
L 156.139441 228.88716 
L 157.851836 250.286299 
L 158.708033 245.838539 
L 159.56423 240.218921 
L 160.420427 240.920253 
L 161.276624 243.706798 
L 162.132822 226.557168 
L 162.989019 229.640842 
L 163.845216 225.442402 
L 164.701413 222.69351 
L 165.55761 243.142195 
L 166.413807 227.2821 
L 167.270005 233.122212 
L 168.126202 240.201272 
L 168.982399 233.109435 
L 169.838596 238.817238 
L 170.694793 250.712854 
L 171.55099 252.87336 
L 172.407188 242.764413 
L 173.263385 239.207708 
L 174.119582 242.508769 
L 174.975779 239.881894 
L 175.831976 228.526777 
L 176.688173 237.702021 
L 177.544371 249.664736 
L 178.400568 234.894371 
L 179.256765 245.147165 
L 180.112962 237.679428 
L 180.969159 242.619083 
L 181.825356 243.173893 
L 182.681554 245.816789 
L 184.393948 223.541381 
L 185.250145 246.491478 
L 186.106342 225.154224 
L 186.962539 222.094089 
L 187.818737 231.579356 
L 188.674934 228.738021 
L 189.531131 233.515793 
L 190.387328 254.883894 
L 191.243525 235.94068 
L 192.099722 237.789788 
L 192.955919 231.167253 
L 193.812117 235.489141 
L 194.668314 232.541372 
L 195.524511 234.498604 
L 196.380708 234.893001 
L 197.236905 240.287133 
L 198.093102 222.326062 
L 198.9493 215.820398 
L 199.805497 232.786362 
L 200.661694 235.293588 
L 201.517891 219.896585 
L 202.374088 235.088031 
L 203.230285 229.365181 
L 204.086483 226.192525 
L 204.94268 221.18473 
L 205.798877 245.144792 
L 206.655074 239.863868 
L 207.511271 245.439919 
L 208.367468 243.809503 
L 209.223666 244.536426 
L 210.079863 226.227208 
L 210.93606 230.310169 
L 211.792257 240.429502 
L 212.648454 243.112028 
L 213.504651 244.086948 
L 214.360849 250.420457 
L 215.217046 240.238515 
L 216.073243 246.914536 
L 216.92944 228.963374 
L 217.785637 238.978872 
L 218.641834 235.220485 
L 219.498032 234.799508 
L 220.354229 228.234503 
L 221.210426 214.576276 
L 222.066623 229.63765 
L 222.92282 250.14239 
L 223.779017 231.561169 
L 224.635215 220.857999 
L 225.491412 234.958514 
L 226.347609 234.213448 
L 227.203806 233.306263 
L 228.060003 244.122572 
L 228.9162 236.215343 
L 229.772398 242.102524 
L 230.628595 232.78936 
L 231.484792 234.91895 
L 232.340989 236.413038 
L 233.197186 225.67582 
L 234.053383 229.338539 
L 234.909581 230.074671 
L 235.765778 226.373879 
L 236.621975 214.784153 
L 237.478172 237.255104 
L 238.334369 228.999544 
L 240.046764 244.065471 
L 240.902961 247.263055 
L 241.759158 247.433962 
L 242.615355 217.906963 
L 243.471552 215.833777 
L 244.327749 220.219211 
L 245.183947 211.023502 
L 246.040144 221.861109 
L 246.896341 224.347682 
L 247.752538 212.820255 
L 249.464932 219.877433 
L 250.32113 227.163985 
L 251.177327 203.22331 
L 252.033524 234.414066 
L 253.745918 223.476969 
L 254.602115 233.246371 
L 255.458313 215.172802 
L 256.31451 216.186053 
L 257.170707 201.610171 
L 258.026904 205.08907 
L 258.883101 213.849023 
L 259.739298 188.061184 
L 260.595496 214.878338 
L 261.451693 200.611552 
L 262.30789 200.266507 
L 263.164087 212.594836 
L 264.020284 219.237549 
L 264.876481 227.487266 
L 265.732679 216.965892 
L 266.588876 219.732819 
L 267.445073 224.798911 
L 268.30127 228.567961 
L 269.157467 234.402301 
L 270.013664 227.963964 
L 270.869861 218.338358 
L 271.726059 206.4734 
L 272.582256 217.595768 
L 273.438453 208.075871 
L 274.29465 206.410409 
L 275.150847 218.604358 
L 276.007044 216.898466 
L 276.863242 220.400301 
L 277.719439 202.994887 
L 278.575636 220.864519 
L 279.431833 205.046492 
L 280.28803 219.714751 
L 281.144227 206.822653 
L 282.000425 222.355787 
L 282.856622 213.001261 
L 283.712819 230.330224 
L 284.569016 210.579039 
L 285.425213 221.080456 
L 286.28141 227.204939 
L 287.137608 217.655481 
L 287.993805 230.069718 
L 288.850002 238.439922 
L 289.706199 241.995341 
L 290.562396 255.882047 
L 291.418593 251.247378 
L 292.274791 244.036626 
L 293.130988 222.517792 
L 293.987185 216.891075 
L 294.843382 227.09261 
L 295.699579 235.501809 
L 296.555776 238.249327 
L 297.411974 238.613602 
L 298.268171 242.849214 
L 299.980565 254.813743 
L 301.692959 258.50227 
L 302.549157 236.676552 
L 303.405354 248.209634 
L 304.261551 244.588729 
L 305.117748 230.926468 
L 305.973945 244.745758 
L 306.830142 212.865054 
L 307.68634 228.249087 
L 309.398734 213.413627 
L 310.254931 215.489496 
L 311.111128 212.528531 
L 311.967325 219.712142 
L 312.823523 228.321343 
L 313.67972 216.084044 
L 314.535917 227.849833 
L 315.392114 219.829188 
L 317.104508 230.249476 
L 317.960706 214.874289 
L 318.816903 232.465647 
L 319.6731 224.851465 
L 320.529297 219.601735 
L 321.385494 219.030311 
L 322.241691 212.91443 
L 323.097889 226.265421 
L 323.954086 235.918845 
L 324.810283 223.86139 
L 326.522677 239.588485 
L 327.378874 229.641035 
L 328.235072 215.875498 
L 329.091269 218.567948 
L 329.947466 215.641445 
L 330.803663 242.553762 
L 332.516057 220.529361 
L 333.372255 233.970972 
L 334.228452 238.475923 
L 335.084649 233.864373 
L 335.940846 209.5245 
L 336.797043 238.99284 
L 337.65324 212.584846 
L 338.509438 223.846861 
L 339.365635 217.169278 
L 340.221832 206.930019 
L 341.078029 223.919517 
L 341.934226 217.868331 
L 342.790423 219.584231 
L 343.64662 213.972387 
L 344.502818 216.464877 
L 345.359015 233.352852 
L 346.215212 238.703314 
L 347.071409 230.072086 
L 347.927606 236.043259 
L 348.783803 237.049415 
L 349.640001 232.240713 
L 350.496198 222.674543 
L 351.352395 215.495908 
L 352.208592 231.61126 
L 353.064789 213.640957 
L 353.920986 214.76664 
L 354.777184 213.950505 
L 355.633381 213.559823 
L 356.489578 233.818543 
L 357.345775 217.746879 
L 359.058169 240.032403 
L 359.914367 223.290432 
L 360.770564 223.739651 
L 362.482958 211.670383 
L 363.339155 229.290981 
L 364.195352 235.778035 
L 365.05155 224.779892 
L 365.907747 233.724566 
L 366.763944 227.403166 
L 367.620141 224.714849 
L 368.476338 234.921878 
L 369.332535 210.950682 
L 370.188733 236.207373 
L 371.04493 232.151749 
L 371.901127 210.552449 
L 372.757324 224.377488 
L 373.613521 227.816398 
L 374.469718 221.233818 
L 375.325916 224.243734 
L 376.182113 215.480786 
L 377.03831 224.401474 
L 377.894507 219.023955 
L 378.750704 237.532704 
L 379.606901 224.07834 
L 380.463099 208.666286 
L 381.319296 229.164431 
L 382.175493 216.417865 
L 383.03169 219.258536 
L 383.887887 243.119692 
L 384.744084 238.588496 
L 386.456479 247.75108 
L 387.312676 229.472307 
L 388.168873 232.839682 
L 389.02507 223.526472 
L 389.881267 221.319349 
L 390.737465 201.371476 
L 391.593662 225.915476 
L 392.449859 198.193708 
L 393.306056 204.741737 
L 394.162253 223.807551 
L 395.01845 195.741591 
L 395.874648 212.443113 
L 396.730845 207.41448 
L 397.587042 205.719012 
L 398.443239 220.763979 
L 399.299436 231.81066 
L 400.155633 222.757979 
L 401.011831 235.277412 
L 401.868028 234.110234 
L 402.724225 228.169897 
L 403.580422 215.378052 
L 405.292816 211.452082 
L 406.149014 216.033916 
L 407.005211 217.998144 
L 407.861408 221.173921 
L 408.717605 209.807072 
L 409.573802 206.359226 
L 410.429999 191.212316 
L 411.286197 200.197594 
L 412.142394 203.183247 
L 412.998591 209.483146 
L 413.854788 202.756503 
L 414.710985 209.982127 
L 415.567182 205.148162 
L 416.42338 212.024335 
L 417.279577 213.444096 
L 418.135774 206.213152 
L 418.991971 218.006542 
L 419.848168 207.928309 
L 420.704365 201.924276 
L 421.560562 192.487509 
L 424.129154 216.511325 
L 424.985351 217.492478 
L 425.841548 200.239607 
L 426.697745 208.425679 
L 427.553943 219.801948 
L 428.41014 199.145664 
L 429.266337 228.414529 
L 430.122534 221.974464 
L 430.978731 216.429155 
L 431.834928 196.43119 
L 432.691126 179.290176 
L 433.547323 197.748736 
L 434.40352 208.508998 
L 435.259717 211.069422 
L 436.115914 213.087075 
L 436.972111 212.864612 
L 437.828309 211.316319 
L 438.684506 212.230376 
L 439.540703 226.376991 
L 440.3969 230.19681 
L 441.253097 224.995415 
L 442.109294 214.562472 
L 442.965492 233.078792 
L 443.821689 229.231159 
L 444.677886 195.228761 
L 445.534083 196.395166 
L 446.39028 192.040484 
L 447.246477 196.863461 
L 448.102675 177.836858 
L 448.958872 191.538774 
L 450.671266 211.181139 
L 451.527463 215.481643 
L 452.38366 195.055824 
L 453.239858 217.060716 
L 454.096055 211.371061 
L 454.952252 199.723707 
L 456.664646 209.168684 
L 457.520843 189.933601 
L 458.377041 196.77083 
L 459.233238 204.51001 
L 460.089435 215.704991 
L 460.945632 205.94234 
L 461.801829 211.228697 
L 462.658026 202.441202 
L 463.514224 199.470116 
L 464.370421 201.738158 
L 465.226618 211.997811 
L 466.082815 199.103303 
L 466.939012 199.239001 
L 467.795209 186.516845 
L 468.651407 180.605594 
L 469.507604 198.252424 
L 470.363801 212.810595 
L 471.219998 192.967225 
L 472.076195 204.570354 
L 472.932392 196.769766 
L 473.78859 190.224157 
L 474.644787 196.340612 
L 475.500984 181.506846 
L 476.357181 188.910322 
L 477.213378 206.761941 
L 478.069575 164.3902 
L 478.925773 170.969367 
L 479.78197 206.225562 
L 480.638167 185.085852 
L 481.494364 182.522423 
L 482.350561 193.945526 
L 483.206758 194.769382 
L 484.062956 189.677939 
L 484.919153 217.54772 
L 485.77535 205.777492 
L 486.631547 196.445832 
L 488.343941 207.29026 
L 489.200139 219.801478 
L 490.056336 209.934069 
L 490.912533 204.038353 
L 491.76873 213.785901 
L 492.624927 206.241898 
L 493.481124 209.528209 
L 494.337321 207.183007 
L 495.193519 202.454234 
L 496.049716 219.030029 
L 496.905913 204.813522 
L 497.76211 211.510431 
L 498.618307 197.823175 
L 499.474504 198.897967 
L 500.330702 197.736156 
L 501.186899 197.411092 
L 502.043096 199.476142 
L 502.899293 191.791272 
L 503.75549 207.587954 
L 504.611687 194.300598 
L 505.467885 187.941484 
L 506.324082 206.629934 
L 507.180279 209.851899 
L 508.036476 225.589022 
L 508.892673 202.943808 
L 509.74887 197.308132 
L 510.605068 194.25239 
L 511.461265 205.922615 
L 512.317462 197.190559 
L 513.173659 207.973721 
L 514.029856 209.708358 
L 514.886053 213.729342 
L 515.742251 190.92981 
L 516.598448 195.040015 
L 517.454645 212.709141 
L 518.310842 203.133109 
L 520.023236 208.471241 
L 520.879434 197.459328 
L 521.735631 194.400046 
L 522.591828 197.78492 
L 523.448025 204.508607 
L 524.304222 215.323677 
L 525.160419 208.282684 
L 526.016617 199.368597 
L 526.872814 204.742641 
L 527.729011 200.980879 
L 528.585208 200.115189 
L 529.441405 204.763346 
L 530.297602 197.076725 
L 531.1538 211.291979 
L 532.009997 195.60401 
L 532.866194 201.552454 
L 533.722391 199.435872 
L 534.578588 195.208555 
L 535.434785 203.579484 
L 536.290983 221.112319 
L 537.14718 205.165176 
L 538.003377 205.156824 
L 538.859574 203.943143 
L 539.715771 201.269976 
L 540.571968 211.549411 
L 541.428166 210.491295 
L 542.284363 208.595942 
L 543.14056 197.270931 
L 543.996757 197.78314 
L 544.852954 198.94014 
L 545.709151 205.717825 
L 546.565349 193.93338 
L 547.421546 192.658101 
L 548.277743 200.841236 
L 549.13394 201.443308 
L 549.990137 202.483639 
L 550.846334 223.309395 
L 551.702532 239.561571 
L 552.558729 227.294057 
L 553.414926 231.655707 
L 554.271123 209.235666 
L 555.12732 208.792916 
L 555.983517 211.201806 
L 556.839715 230.677288 
L 557.695912 208.63818 
L 559.408306 218.563118 
L 560.264503 191.625473 
L 561.1207 197.298961 
L 561.976898 193.566858 
L 562.833095 205.779234 
L 563.689292 204.003478 
L 564.545489 215.865706 
L 565.401686 209.100807 
L 566.257883 224.534789 
L 567.114081 208.41085 
L 567.970278 207.491095 
L 568.826475 195.555285 
L 569.682672 187.579067 
L 570.538869 202.017246 
L 571.395066 202.71289 
L 572.251263 230.151549 
L 573.107461 227.989998 
L 573.963658 233.165151 
L 574.819855 234.864052 
L 575.676052 212.79633 
L 576.532249 217.395771 
L 577.388446 197.335965 
L 578.244644 203.96285 
L 579.100841 209.000926 
L 579.957038 206.470867 
L 580.813235 199.716381 
L 581.669432 196.724543 
L 582.525629 200.460243 
L 583.381827 184.972026 
L 584.238024 189.574583 
L 585.094221 179.846385 
L 585.950418 181.20711 
L 586.806615 177.053404 
L 587.662812 181.467489 
L 588.51901 179.990886 
L 589.375207 189.961546 
L 590.231404 197.286184 
L 591.087601 203.646429 
L 591.943798 193.908306 
L 592.799995 210.897362 
L 593.656193 185.940742 
L 594.51239 192.628819 
L 595.368587 200.936739 
L 596.224784 216.21156 
L 597.080981 214.329455 
L 597.937178 207.612754 
L 598.793376 203.176223 
L 599.649573 208.008398 
L 600.50577 206.178465 
L 601.361967 202.716101 
L 602.218164 206.069611 
L 603.074361 202.465909 
L 603.930559 208.500675 
L 604.786756 204.970169 
L 605.642953 191.526034 
L 606.49915 196.717933 
L 607.355347 179.23728 
L 608.211544 210.717505 
L 609.067742 203.284634 
L 609.923939 210.749066 
L 610.780136 211.857961 
L 611.636333 200.579463 
L 612.49253 209.378049 
L 613.348727 203.256792 
L 614.204925 214.944633 
L 615.061122 202.157454 
L 615.917319 199.401109 
L 616.773516 203.57406 
L 617.629713 212.091346 
L 618.48591 198.836521 
L 619.342108 190.766995 
L 620.198305 184.306569 
L 621.054502 204.746605 
L 621.910699 217.411485 
L 622.766896 197.274716 
L 623.623093 187.608378 
L 624.479291 193.698329 
L 625.335488 221.119654 
L 626.191685 217.674746 
L 627.047882 207.697871 
L 627.904079 201.240458 
L 628.760276 220.150486 
L 630.472671 225.723077 
L 631.328868 222.870533 
L 632.185065 218.463331 
L 633.041262 212.773893 
L 633.897459 213.168708 
L 634.753657 204.689754 
L 635.609854 206.378151 
L 636.466051 198.321798 
L 637.322248 210.102863 
L 639.034642 196.88282 
L 639.89084 208.023463 
L 640.747037 195.094428 
L 641.603234 219.165849 
L 642.459431 193.243752 
L 643.315628 196.823963 
L 644.171825 193.658557 
L 645.028022 212.85724 
L 645.88422 209.0384 
L 646.740417 210.981405 
L 647.596614 202.253352 
L 648.452811 207.303593 
L 649.309008 208.643848 
L 650.165205 206.928174 
L 651.021403 227.977781 
L 651.8776 215.076894 
L 652.733797 219.624558 
L 653.589994 219.20723 
L 654.446191 211.566228 
L 655.302388 208.227415 
L 656.158586 214.584477 
L 657.014783 202.675152 
L 657.87098 209.844339 
L 658.727177 203.816804 
L 659.583374 212.57931 
L 660.439571 183.460953 
L 661.295769 208.484263 
L 662.151966 204.937281 
L 663.008163 197.967159 
L 663.86436 186.801828 
L 664.720557 200.284595 
L 665.576754 206.837454 
L 667.289149 201.352579 
L 668.145346 188.09492 
L 669.001543 197.967987 
L 669.85774 199.808146 
L 670.713937 202.107993 
L 672.426332 182.311391 
L 673.282529 195.878908 
L 674.138726 197.232798 
L 674.994923 197.374691 
L 675.85112 204.528963 
L 676.707318 203.133269 
L 677.563515 198.047314 
L 679.275909 196.704281 
L 679.275909 196.704281 
" clip-path="url(#p5767f3db98)" style="fill: none; stroke: #ff7f0e; stroke-width: 1.5; stroke-linecap: square"/>
   </g>
   <g id="line2d_25">
    <path d="M 423.272957 53.644749 
L 424.129154 51.656436 
L 424.985351 72.24683 
L 425.841548 32.085394 
L 426.697745 100.054779 
L 427.553943 75.986937 
L 428.41014 71.011785 
L 429.266337 89.264377 
L 430.122534 81.79262 
L 430.978731 123.131083 
L 431.834928 129.34644 
L 432.691126 208.113561 
L 433.547323 238.818881 
L 434.40352 241.467794 
L 436.115914 260.017449 
L 436.972111 267.426649 
L 437.828309 262.975269 
L 438.684506 271.243494 
L 439.540703 267.153747 
L 440.3969 272.492414 
L 441.253097 271.643997 
L 442.109294 266.41077 
L 442.965492 276.738731 
L 443.821689 275.355294 
L 444.677886 270.494873 
L 445.534083 282.66365 
L 446.39028 277.085836 
L 447.246477 285.039537 
L 448.102675 278.961185 
L 448.958872 280.669253 
L 449.815069 281.246149 
L 450.671266 276.277324 
L 451.527463 278.411918 
L 452.38366 281.212707 
L 453.239858 277.420073 
L 454.096055 280.647169 
L 454.952252 280.192959 
L 455.808449 282.087864 
L 456.664646 279.933683 
L 457.520843 283.824965 
L 458.377041 284.432733 
L 460.089435 274.583727 
L 460.945632 280.969945 
L 461.801829 273.792404 
L 462.658026 279.892264 
L 463.514224 279.044009 
L 464.370421 279.640775 
L 465.226618 281.06831 
L 466.082815 278.362338 
L 466.939012 276.973929 
L 467.795209 279.495728 
L 468.651407 280.238931 
L 469.507604 280.38984 
L 470.363801 275.435074 
L 471.219998 280.961394 
L 472.076195 272.743686 
L 472.932392 275.971997 
L 473.78859 278.107476 
L 474.644787 272.863693 
L 475.500984 275.30669 
L 476.357181 272.595072 
L 477.213378 272.87086 
L 478.069575 269.558745 
L 479.78197 272.888223 
L 480.638167 272.796225 
L 481.494364 268.341046 
L 482.350561 271.95032 
L 483.206758 269.639743 
L 484.062956 274.623364 
L 484.919153 269.269095 
L 485.77535 268.202288 
L 486.631547 273.470828 
L 487.487744 271.451631 
L 488.343941 272.13673 
L 489.200139 272.319336 
L 490.912533 259.329493 
L 491.76873 263.258551 
L 492.624927 266.311247 
L 493.481124 276.441949 
L 494.337321 272.91465 
L 495.193519 259.359698 
L 496.049716 264.184661 
L 496.905913 267.83193 
L 497.76211 268.022412 
L 498.618307 265.795284 
L 499.474504 264.671521 
L 500.330702 263.736165 
L 501.186899 264.581835 
L 502.043096 270.774534 
L 502.899293 268.816569 
L 503.75549 265.939945 
L 504.611687 267.168386 
L 505.467885 262.658075 
L 506.324082 264.206277 
L 507.180279 261.930287 
L 508.036476 264.57101 
L 508.892673 263.307329 
L 509.74887 261.796281 
L 510.605068 261.717628 
L 511.461265 259.33662 
L 512.317462 251.512894 
L 513.173659 270.719801 
L 514.029856 251.693725 
L 514.886053 265.321928 
L 515.742251 254.79019 
L 516.598448 256.066796 
L 517.454645 256.961745 
L 518.310842 259.653795 
L 519.167039 260.791577 
L 520.023236 259.93671 
L 520.879434 268.862056 
L 521.735631 257.584338 
L 522.591828 254.497642 
L 523.448025 263.939653 
L 524.304222 267.241893 
L 525.160419 274.639284 
L 526.016617 264.681772 
L 526.872814 266.926677 
L 527.729011 258.729073 
L 528.585208 260.793382 
L 529.441405 263.698543 
L 530.297602 259.479672 
L 531.1538 258.122218 
L 532.009997 262.240971 
L 532.866194 260.68841 
L 533.722391 265.541467 
L 534.578588 262.012393 
L 535.434785 268.256265 
L 537.14718 261.329538 
L 538.003377 263.672283 
L 538.859574 255.738567 
L 539.715771 258.920959 
L 540.571968 263.844697 
L 541.428166 273.571819 
L 542.284363 257.748066 
L 543.14056 261.563179 
L 543.996757 262.582334 
L 544.852954 262.130022 
L 545.709151 258.082503 
L 546.565349 256.578727 
L 547.421546 260.197697 
L 548.277743 250.998665 
L 549.13394 262.35163 
L 549.990137 253.133452 
L 550.846334 252.475357 
L 551.702532 265.29564 
L 552.558729 260.524425 
L 553.414926 258.72543 
L 554.271123 259.224433 
L 555.12732 261.671475 
L 555.983517 261.090577 
L 556.839715 264.395651 
L 557.695912 265.488189 
L 558.552109 262.9234 
L 559.408306 262.950475 
L 560.264503 267.067857 
L 561.1207 269.450746 
L 561.976898 258.853943 
L 562.833095 251.334906 
L 563.689292 262.579246 
L 564.545489 249.968324 
L 565.401686 262.361783 
L 566.257883 265.231392 
L 567.114081 261.801361 
L 567.970278 263.730678 
L 568.826475 259.096842 
L 569.682672 259.598059 
L 570.538869 242.47106 
L 571.395066 254.421404 
L 572.251263 257.273703 
L 573.107461 259.521943 
L 573.963658 258.56913 
L 574.819855 258.440381 
L 575.676052 246.51062 
L 576.532249 263.634185 
L 577.388446 263.267409 
L 578.244644 253.515631 
L 579.100841 255.143793 
L 579.957038 257.429893 
L 580.813235 265.366226 
L 581.669432 259.013213 
L 582.525629 269.995382 
L 583.381827 266.690979 
L 584.238024 261.97732 
L 585.094221 263.867694 
L 585.950418 259.070714 
L 586.806615 256.383132 
L 587.662812 262.152726 
L 588.51901 263.852761 
L 589.375207 268.875791 
L 590.231404 261.369081 
L 591.087601 261.279675 
L 591.943798 260.5451 
L 592.799995 265.349339 
L 593.656193 261.262684 
L 595.368587 250.818036 
L 596.224784 252.820171 
L 597.080981 240.876202 
L 597.937178 240.30409 
L 598.793376 254.180788 
L 599.649573 244.4869 
L 600.50577 254.769762 
L 601.361967 254.457597 
L 602.218164 268.522197 
L 603.074361 259.518073 
L 603.930559 255.861587 
L 604.786756 251.473485 
L 605.642953 264.310717 
L 606.49915 261.386142 
L 607.355347 255.730216 
L 608.211544 263.991142 
L 609.067742 256.974126 
L 609.923939 260.483404 
L 610.780136 261.158395 
L 611.636333 263.629143 
L 612.49253 267.3696 
L 613.348727 257.475531 
L 614.204925 254.714366 
L 615.061122 261.441548 
L 615.917319 248.423575 
L 616.773516 257.807558 
L 617.629713 251.611856 
L 618.48591 254.775727 
L 619.342108 266.103861 
L 620.198305 264.31877 
L 621.910699 252.290439 
L 622.766896 257.733697 
L 623.623093 260.833168 
L 624.479291 262.582776 
L 626.191685 262.478124 
L 627.047882 269.29278 
L 627.904079 248.158328 
L 628.760276 263.339775 
L 629.616474 257.942668 
L 630.472671 261.290002 
L 632.185065 258.112567 
L 633.041262 255.32114 
L 633.897459 254.020478 
L 634.753657 250.858513 
L 635.609854 250.553914 
L 636.466051 256.788488 
L 637.322248 257.859862 
L 638.178445 266.458314 
L 639.034642 254.577764 
L 639.89084 259.450022 
L 640.747037 262.948648 
L 641.603234 241.177986 
L 642.459431 260.580794 
L 643.315628 257.904878 
L 644.171825 264.257912 
L 645.028022 269.526815 
L 645.88422 259.33968 
L 646.740417 252.506353 
L 647.596614 255.362061 
L 648.452811 244.083558 
L 649.309008 253.100596 
L 650.165205 248.354818 
L 651.021403 247.368396 
L 651.8776 252.135924 
L 652.733797 250.023113 
L 653.589994 252.281598 
L 654.446191 261.180413 
L 656.158586 250.409874 
L 657.014783 256.213571 
L 657.87098 259.41025 
L 658.727177 255.398664 
L 659.583374 261.968796 
L 660.439571 264.066003 
L 661.295769 253.981158 
L 662.151966 260.207729 
L 663.008163 261.860225 
L 663.86436 253.325205 
L 664.720557 269.095092 
L 665.576754 262.118935 
L 666.432952 254.180995 
L 667.289149 260.633053 
L 669.001543 246.242963 
L 669.85774 255.269067 
L 670.713937 242.487523 
L 671.570135 251.435949 
L 672.426332 245.772116 
L 673.282529 259.899372 
L 674.138726 249.476975 
L 674.994923 259.526547 
L 675.85112 251.403536 
L 676.707318 251.127155 
L 677.563515 253.54199 
L 678.419712 261.921634 
L 679.275909 258.575618 
L 679.275909 258.575618 
" clip-path="url(#p5767f3db98)" style="fill: none; stroke: #2ca02c; stroke-width: 1.5; stroke-linecap: square"/>
   </g>
   <g id="patch_3">
    <path d="M 50.87 318.04 
L 50.87 10.8 
" style="fill: none; stroke: #000000; stroke-width: 0.8; stroke-linejoin: miter; stroke-linecap: square"/>
   </g>
   <g id="patch_4">
    <path d="M 709.2 318.04 
L 709.2 10.8 
" style="fill: none; stroke: #000000; stroke-width: 0.8; stroke-linejoin: miter; stroke-linecap: square"/>
   </g>
   <g id="patch_5">
    <path d="M 50.87 318.04 
L 709.2 318.04 
" style="fill: none; stroke: #000000; stroke-width: 0.8; stroke-linejoin: miter; stroke-linecap: square"/>
   </g>
   <g id="patch_6">
    <path d="M 50.87 10.8 
L 709.2 10.8 
" style="fill: none; stroke: #000000; stroke-width: 0.8; stroke-linejoin: miter; stroke-linecap: square"/>
   </g>
   <g id="legend_1">
    <g id="patch_7">
     <path d="M 520.784375 139.644375 
L 702.2 139.644375 
Q 704.2 139.644375 704.2 137.644375 
L 704.2 94.61 
Q 704.2 92.61 702.2 92.61 
L 520.784375 92.61 
Q 518.784375 92.61 518.784375 94.61 
L 518.784375 137.644375 
Q 518.784375 139.644375 520.784375 139.644375 
z
" style="fill: #ffffff; opacity: 0.8; stroke: #cccccc; stroke-linejoin: miter"/>
    </g>
    <g id="line2d_26">
     <path d="M 522.784375 100.708438 
L 532.784375 100.708438 
L 542.784375 100.708438 
" style="fill: none; stroke: #1f77b4; stroke-width: 1.5; stroke-linecap: square"/>
    </g>
    <g id="text_15">
     <text style="font-size: 10px; font-family: 'DejaVu Sans', 'Bitstream Vera Sans', 'Computer Modern Sans Serif', 'Lucida Grande', 'Verdana', 'Geneva', 'Lucid', 'Arial', 'Helvetica', 'Avant Garde', sans-serif; text-anchor: start" x="550.784375" y="104.208438" transform="rotate(-0 550.784375 104.208438)">A. Baseline</text>
    </g>
    <g id="line2d_27">
     <path d="M 522.784375 115.386563 
L 532.784375 115.386563 
L 542.784375 115.386563 
" style="fill: none; stroke: #ff7f0e; stroke-width: 1.5; stroke-linecap: square"/>
    </g>
    <g id="text_16">
     <text style="font-size: 10px; font-family: 'DejaVu Sans', 'Bitstream Vera Sans', 'Computer Modern Sans Serif', 'Lucida Grande', 'Verdana', 'Geneva', 'Lucid', 'Arial', 'Helvetica', 'Avant Garde', sans-serif; text-anchor: start" x="550.784375" y="118.886563" transform="rotate(-0 550.784375 118.886563)">J. Dirichlet (from scratch)</text>
    </g>
    <g id="line2d_28">
     <path d="M 522.784375 130.064688 
L 532.784375 130.064688 
L 542.784375 130.064688 
" style="fill: none; stroke: #2ca02c; stroke-width: 1.5; stroke-linecap: square"/>
    </g>
    <g id="text_17">
     <text style="font-size: 10px; font-family: 'DejaVu Sans', 'Bitstream Vera Sans', 'Computer Modern Sans Serif', 'Lucida Grande', 'Verdana', 'Geneva', 'Lucid', 'Arial', 'Helvetica', 'Avant Garde', sans-serif; text-anchor: start" x="550.784375" y="133.564688" transform="rotate(-0 550.784375 133.564688)">K. Dirichlet (transfer learning)</text>
    </g>
   </g>
  </g>
 </g>
 <defs>
  <clipPath id="p5767f3db98">
   <rect x="50.87" y="10.8" width="658.33" height="307.24"/>
  </clipPath>
 </defs>
</svg>
