<?xml version="1.0" encoding="utf-8" standalone="no"?>
<!DOCTYPE svg PUBLIC "-//W3C//DTD SVG 1.1//EN"
  "http://www.w3.org/Graphics/SVG/1.1/DTD/svg11.dtd">
<svg xmlns:xlink="http://www.w3.org/1999/xlink" width="720pt" height="360pt" viewBox="0 0 720 360" xmlns="http://www.w3.org/2000/svg" version="1.1">
 <metadata>
  <rdf:RDF xmlns:dc="http://purl.org/dc/elements/1.1/" xmlns:cc="http://creativecommons.org/ns#" xmlns:rdf="http://www.w3.org/1999/02/22-rdf-syntax-ns#">
   <cc:Work>
    <dc:type rdf:resource="http://purl.org/dc/dcmitype/StillImage"/>
    <dc:date>2025-05-17T14:31:16.116245</dc:date>
    <dc:format>image/svg+xml</dc:format>
    <dc:creator>
     <cc:Agent>
      <dc:title>Matplotlib v3.10.3, https://matplotlib.org/</dc:title>
     </cc:Agent>
    </dc:creator>
   </cc:Work>
  </rdf:RDF>
 </metadata>
 <defs>
  <style type="text/css">*{stroke-linejoin: round; stroke-linecap: butt}</style>
 </defs>
 <g id="figure_1">
  <g id="patch_1">
   <path d="M 0 360 
L 720 360 
L 720 0 
L 0 0 
z
" style="fill: #ffffff"/>
  </g>
  <g id="axes_1">
   <g id="patch_2">
    <path d="M 50.87 318.04 
L 709.2 318.04 
L 709.2 10.8 
L 50.87 10.8 
z
" style="fill: #ffffff"/>
   </g>
   <g id="matplotlib.axis_1">
    <g id="xtick_1">
     <g id="line2d_1">
      <path d="M 80.794091 318.04 
L 80.794091 10.8 
" clip-path="url(#p7e94c3ea64)" style="fill: none; stroke: #b0b0b0; stroke-width: 0.8; stroke-linecap: square"/>
     </g>
     <g id="line2d_2">
      <defs>
       <path id="mf4c6c57866" d="M 0 0 
L 0 3.5 
" style="stroke: #000000; stroke-width: 0.8"/>
      </defs>
      <g>
       <use xlink:href="#mf4c6c57866" x="80.794091" y="318.04" style="stroke: #000000; stroke-width: 0.8"/>
      </g>
     </g>
     <g id="text_1">
      <text style="font-size: 10px; font-family: 'DejaVu Sans', 'Bitstream Vera Sans', 'Computer Modern Sans Serif', 'Lucida Grande', 'Verdana', 'Geneva', 'Lucid', 'Arial', 'Helvetica', 'Avant Garde', sans-serif; text-anchor: middle" x="80.794091" y="332.638438" transform="rotate(-0 80.794091 332.638438)">0.0</text>
     </g>
    </g>
    <g id="xtick_2">
     <g id="line2d_3">
      <path d="M 187.665844 318.04 
L 187.665844 10.8 
" clip-path="url(#p7e94c3ea64)" style="fill: none; stroke: #b0b0b0; stroke-width: 0.8; stroke-linecap: square"/>
     </g>
     <g id="line2d_4">
      <g>
       <use xlink:href="#mf4c6c57866" x="187.665844" y="318.04" style="stroke: #000000; stroke-width: 0.8"/>
      </g>
     </g>
     <g id="text_2">
      <text style="font-size: 10px; font-family: 'DejaVu Sans', 'Bitstream Vera Sans', 'Computer Modern Sans Serif', 'Lucida Grande', 'Verdana', 'Geneva', 'Lucid', 'Arial', 'Helvetica', 'Avant Garde', sans-serif; text-anchor: middle" x="187.665844" y="332.638438" transform="rotate(-0 187.665844 332.638438)">0.2</text>
     </g>
    </g>
    <g id="xtick_3">
     <g id="line2d_5">
      <path d="M 294.537597 318.04 
L 294.537597 10.8 
" clip-path="url(#p7e94c3ea64)" style="fill: none; stroke: #b0b0b0; stroke-width: 0.8; stroke-linecap: square"/>
     </g>
     <g id="line2d_6">
      <g>
       <use xlink:href="#mf4c6c57866" x="294.537597" y="318.04" style="stroke: #000000; stroke-width: 0.8"/>
      </g>
     </g>
     <g id="text_3">
      <text style="font-size: 10px; font-family: 'DejaVu Sans', 'Bitstream Vera Sans', 'Computer Modern Sans Serif', 'Lucida Grande', 'Verdana', 'Geneva', 'Lucid', 'Arial', 'Helvetica', 'Avant Garde', sans-serif; text-anchor: middle" x="294.537597" y="332.638438" transform="rotate(-0 294.537597 332.638438)">0.4</text>
     </g>
    </g>
    <g id="xtick_4">
     <g id="line2d_7">
      <path d="M 401.409351 318.04 
L 401.409351 10.8 
" clip-path="url(#p7e94c3ea64)" style="fill: none; stroke: #b0b0b0; stroke-width: 0.8; stroke-linecap: square"/>
     </g>
     <g id="line2d_8">
      <g>
       <use xlink:href="#mf4c6c57866" x="401.409351" y="318.04" style="stroke: #000000; stroke-width: 0.8"/>
      </g>
     </g>
     <g id="text_4">
      <text style="font-size: 10px; font-family: 'DejaVu Sans', 'Bitstream Vera Sans', 'Computer Modern Sans Serif', 'Lucida Grande', 'Verdana', 'Geneva', 'Lucid', 'Arial', 'Helvetica', 'Avant Garde', sans-serif; text-anchor: middle" x="401.409351" y="332.638438" transform="rotate(-0 401.409351 332.638438)">0.6</text>
     </g>
    </g>
    <g id="xtick_5">
     <g id="line2d_9">
      <path d="M 508.281104 318.04 
L 508.281104 10.8 
" clip-path="url(#p7e94c3ea64)" style="fill: none; stroke: #b0b0b0; stroke-width: 0.8; stroke-linecap: square"/>
     </g>
     <g id="line2d_10">
      <g>
       <use xlink:href="#mf4c6c57866" x="508.281104" y="318.04" style="stroke: #000000; stroke-width: 0.8"/>
      </g>
     </g>
     <g id="text_5">
      <text style="font-size: 10px; font-family: 'DejaVu Sans', 'Bitstream Vera Sans', 'Computer Modern Sans Serif', 'Lucida Grande', 'Verdana', 'Geneva', 'Lucid', 'Arial', 'Helvetica', 'Avant Garde', sans-serif; text-anchor: middle" x="508.281104" y="332.638438" transform="rotate(-0 508.281104 332.638438)">0.8</text>
     </g>
    </g>
    <g id="xtick_6">
     <g id="line2d_11">
      <path d="M 615.152857 318.04 
L 615.152857 10.8 
" clip-path="url(#p7e94c3ea64)" style="fill: none; stroke: #b0b0b0; stroke-width: 0.8; stroke-linecap: square"/>
     </g>
     <g id="line2d_12">
      <g>
       <use xlink:href="#mf4c6c57866" x="615.152857" y="318.04" style="stroke: #000000; stroke-width: 0.8"/>
      </g>
     </g>
     <g id="text_6">
      <text style="font-size: 10px; font-family: 'DejaVu Sans', 'Bitstream Vera Sans', 'Computer Modern Sans Serif', 'Lucida Grande', 'Verdana', 'Geneva', 'Lucid', 'Arial', 'Helvetica', 'Avant Garde', sans-serif; text-anchor: middle" x="615.152857" y="332.638438" transform="rotate(-0 615.152857 332.638438)">1.0</text>
     </g>
    </g>
    <g id="text_7">
     <text style="font-size: 10px; font-family: 'DejaVu Sans', 'Bitstream Vera Sans', 'Computer Modern Sans Serif', 'Lucida Grande', 'Verdana', 'Geneva', 'Lucid', 'Arial', 'Helvetica', 'Avant Garde', sans-serif; text-anchor: middle" x="380.035" y="346.316563" transform="rotate(-0 380.035 346.316563)">Number of simulated time steps</text>
    </g>
    <g id="text_8">
     <text style="font-size: 10px; font-family: 'DejaVu Sans', 'Bitstream Vera Sans', 'Computer Modern Sans Serif', 'Lucida Grande', 'Verdana', 'Geneva', 'Lucid', 'Arial', 'Helvetica', 'Avant Garde', sans-serif; text-anchor: end" x="709.2" y="345.316563" transform="rotate(-0 709.2 345.316563)">1e7</text>
    </g>
   </g>
   <g id="matplotlib.axis_2">
    <g id="ytick_1">
     <g id="line2d_13">
      <path d="M 50.87 285.906188 
L 709.2 285.906188 
" clip-path="url(#p7e94c3ea64)" style="fill: none; stroke: #b0b0b0; stroke-width: 0.8; stroke-linecap: square"/>
     </g>
     <g id="line2d_14">
      <defs>
       <path id="m8580fcea11" d="M 0 0 
L -3.5 0 
" style="stroke: #000000; stroke-width: 0.8"/>
      </defs>
      <g>
       <use xlink:href="#m8580fcea11" x="50.87" y="285.906188" style="stroke: #000000; stroke-width: 0.8"/>
      </g>
     </g>
     <g id="text_9">
      <text style="font-size: 10px; font-family: 'DejaVu Sans', 'Bitstream Vera Sans', 'Computer Modern Sans Serif', 'Lucida Grande', 'Verdana', 'Geneva', 'Lucid', 'Arial', 'Helvetica', 'Avant Garde', sans-serif; text-anchor: end" x="43.87" y="289.705407" transform="rotate(-0 43.87 289.705407)">0</text>
     </g>
    </g>
    <g id="ytick_2">
     <g id="line2d_15">
      <path d="M 50.87 225.270004 
L 709.2 225.270004 
" clip-path="url(#p7e94c3ea64)" style="fill: none; stroke: #b0b0b0; stroke-width: 0.8; stroke-linecap: square"/>
     </g>
     <g id="line2d_16">
      <g>
       <use xlink:href="#m8580fcea11" x="50.87" y="225.270004" style="stroke: #000000; stroke-width: 0.8"/>
      </g>
     </g>
     <g id="text_10">
      <text style="font-size: 10px; font-family: 'DejaVu Sans', 'Bitstream Vera Sans', 'Computer Modern Sans Serif', 'Lucida Grande', 'Verdana', 'Geneva', 'Lucid', 'Arial', 'Helvetica', 'Avant Garde', sans-serif; text-anchor: end" x="43.87" y="229.069223" transform="rotate(-0 43.87 229.069223)">200</text>
     </g>
    </g>
    <g id="ytick_3">
     <g id="line2d_17">
      <path d="M 50.87 164.63382 
L 709.2 164.63382 
" clip-path="url(#p7e94c3ea64)" style="fill: none; stroke: #b0b0b0; stroke-width: 0.8; stroke-linecap: square"/>
     </g>
     <g id="line2d_18">
      <g>
       <use xlink:href="#m8580fcea11" x="50.87" y="164.63382" style="stroke: #000000; stroke-width: 0.8"/>
      </g>
     </g>
     <g id="text_11">
      <text style="font-size: 10px; font-family: 'DejaVu Sans', 'Bitstream Vera Sans', 'Computer Modern Sans Serif', 'Lucida Grande', 'Verdana', 'Geneva', 'Lucid', 'Arial', 'Helvetica', 'Avant Garde', sans-serif; text-anchor: end" x="43.87" y="168.433039" transform="rotate(-0 43.87 168.433039)">400</text>
     </g>
    </g>
    <g id="ytick_4">
     <g id="line2d_19">
      <path d="M 50.87 103.997636 
L 709.2 103.997636 
" clip-path="url(#p7e94c3ea64)" style="fill: none; stroke: #b0b0b0; stroke-width: 0.8; stroke-linecap: square"/>
     </g>
     <g id="line2d_20">
      <g>
       <use xlink:href="#m8580fcea11" x="50.87" y="103.997636" style="stroke: #000000; stroke-width: 0.8"/>
      </g>
     </g>
     <g id="text_12">
      <text style="font-size: 10px; font-family: 'DejaVu Sans', 'Bitstream Vera Sans', 'Computer Modern Sans Serif', 'Lucida Grande', 'Verdana', 'Geneva', 'Lucid', 'Arial', 'Helvetica', 'Avant Garde', sans-serif; text-anchor: end" x="43.87" y="107.796855" transform="rotate(-0 43.87 107.796855)">600</text>
     </g>
    </g>
    <g id="ytick_5">
     <g id="line2d_21">
      <path d="M 50.87 43.361452 
L 709.2 43.361452 
" clip-path="url(#p7e94c3ea64)" style="fill: none; stroke: #b0b0b0; stroke-width: 0.8; stroke-linecap: square"/>
     </g>
     <g id="line2d_22">
      <g>
       <use xlink:href="#m8580fcea11" x="50.87" y="43.361452" style="stroke: #000000; stroke-width: 0.8"/>
      </g>
     </g>
     <g id="text_13">
      <text style="font-size: 10px; font-family: 'DejaVu Sans', 'Bitstream Vera Sans', 'Computer Modern Sans Serif', 'Lucida Grande', 'Verdana', 'Geneva', 'Lucid', 'Arial', 'Helvetica', 'Avant Garde', sans-serif; text-anchor: end" x="43.87" y="47.160671" transform="rotate(-0 43.87 47.160671)">800</text>
     </g>
    </g>
    <g id="text_14">
     <text style="font-size: 10px; font-family: 'DejaVu Sans', 'Bitstream Vera Sans', 'Computer Modern Sans Serif', 'Lucida Grande', 'Verdana', 'Geneva', 'Lucid', 'Arial', 'Helvetica', 'Avant Garde', sans-serif; text-anchor: middle" x="18.702813" y="164.42" transform="rotate(-90 18.702813 164.42)">Mean episode return</text>
    </g>
   </g>
   <g id="line2d_23">
    <path d="M 80.794091 282.353602 
L 82.504039 280.495686 
L 84.213987 278.102996 
L 85.923935 275.253694 
L 87.633883 272.038432 
L 89.343831 268.479446 
L 91.053779 264.458391 
L 92.763727 259.701093 
L 94.473675 253.864961 
L 96.183623 246.704382 
L 97.893571 238.210304 
L 99.603519 228.629057 
L 103.023416 207.782067 
L 106.443312 187.361215 
L 108.15326 178.372889 
L 109.863208 170.690071 
L 111.573156 164.338094 
L 114.138078 156.315162 
L 115.848026 150.955092 
L 117.557974 145.025372 
L 120.97787 131.849185 
L 123.542792 122.285451 
L 125.25274 116.678125 
L 126.962688 112.071908 
L 127.817662 110.284052 
L 128.672636 108.922141 
L 129.52761 108.03831 
L 130.382584 107.664088 
L 131.237558 107.795247 
L 132.092532 108.385904 
L 132.947506 109.34069 
L 135.512429 112.894273 
L 136.367403 113.740745 
L 137.222377 114.174323 
L 138.077351 114.113652 
L 138.932325 113.534057 
L 139.787299 112.467433 
L 140.642273 110.992302 
L 142.352221 107.281367 
L 144.062169 103.393046 
L 145.772117 100.130463 
L 146.627091 98.878457 
L 147.482065 97.90797 
L 148.337039 97.212825 
L 149.192013 96.768482 
L 150.046987 96.533303 
L 151.756935 96.446614 
L 153.466883 96.32768 
L 154.321857 96.035163 
L 155.176831 95.487483 
L 156.031805 94.640586 
L 156.886779 93.485687 
L 157.741753 92.049032 
L 159.451701 88.59019 
L 162.016623 83.194367 
L 163.726571 80.261802 
L 164.581545 79.114381 
L 165.436519 78.208167 
L 166.291494 77.558455 
L 167.146468 77.174038 
L 168.001442 77.052531 
L 168.856416 77.174987 
L 169.71139 77.504798 
L 171.421338 78.550748 
L 173.131286 79.656149 
L 174.841234 80.415724 
L 176.551182 80.796566 
L 178.26113 81.098872 
L 179.971078 81.70125 
L 181.681026 82.798091 
L 183.390974 84.310491 
L 187.665844 88.611697 
L 189.375792 90.658679 
L 190.230766 91.925025 
L 191.08574 93.417108 
L 192.795688 97.13912 
L 197.070558 108.125061 
L 197.925532 109.758332 
L 198.780506 110.953969 
L 199.635481 111.658968 
L 200.490455 111.864932 
L 201.345429 111.616067 
L 202.200403 111.006246 
L 204.765325 108.56202 
L 205.620299 108.153532 
L 206.475273 108.234565 
L 207.330247 108.926718 
L 208.185221 110.298281 
L 209.040195 112.35588 
L 209.895169 115.046649 
L 211.605117 121.860984 
L 214.170039 133.100669 
L 215.025013 136.37979 
L 215.879987 139.159332 
L 216.734961 141.331519 
L 217.589935 142.834605 
L 218.444909 143.661249 
L 219.299883 143.85814 
L 220.154857 143.521804 
L 221.009831 142.789722 
L 224.429727 139.05548 
L 225.284701 138.546254 
L 226.139675 138.315616 
L 226.994649 138.336777 
L 228.704597 138.871565 
L 230.414545 139.520596 
L 231.269519 139.719046 
L 232.124494 139.783538 
L 232.979468 139.706556 
L 234.689416 139.187272 
L 237.254338 137.904806 
L 240.674234 135.910128 
L 242.384182 134.565867 
L 244.09413 132.695279 
L 245.804078 130.270343 
L 248.369 126.3823 
L 249.223974 125.326605 
L 250.078948 124.511231 
L 250.933922 123.975553 
L 251.788896 123.723795 
L 252.64387 123.725812 
L 253.498844 123.922312 
L 256.91874 125.110445 
L 257.773714 125.201943 
L 258.628688 125.161696 
L 260.338636 124.734073 
L 262.048584 123.955482 
L 263.758532 122.835341 
L 264.613506 122.092226 
L 265.468481 121.183642 
L 266.323455 120.082903 
L 268.033403 117.270758 
L 269.743351 113.797665 
L 272.308273 108.318847 
L 274.018221 105.199946 
L 274.873195 103.92587 
L 275.728169 102.867292 
L 276.583143 102.032252 
L 277.438117 101.422641 
L 278.293091 101.035833 
L 279.148065 100.8637 
L 280.003039 100.890645 
L 280.858013 101.090092 
L 282.567961 101.826134 
L 284.277909 102.576932 
L 285.132883 102.766626 
L 285.987857 102.736744 
L 286.842831 102.436288 
L 287.697805 101.839372 
L 288.552779 100.949638 
L 289.407753 99.801078 
L 291.117701 96.981286 
L 293.682623 92.621545 
L 295.392571 90.323218 
L 297.102519 88.641543 
L 298.812468 87.393705 
L 300.522416 86.379865 
L 302.232364 85.577536 
L 303.087338 85.307213 
L 303.942312 85.167013 
L 304.797286 85.18816 
L 305.65226 85.393637 
L 306.507234 85.791569 
L 307.362208 86.373383 
L 309.072156 87.966806 
L 311.637078 90.582723 
L 312.492052 91.255424 
L 313.347026 91.742801 
L 314.202 92.023107 
L 315.056974 92.097761 
L 315.911948 91.990906 
L 317.621896 91.383371 
L 319.331844 90.485352 
L 321.041792 89.416026 
L 323.606714 87.465739 
L 325.316662 86.128216 
L 326.171636 85.579003 
L 327.02661 85.173117 
L 327.881584 84.938396 
L 328.736558 84.87374 
L 330.446506 85.101392 
L 332.156455 85.350582 
L 333.011429 85.311104 
L 333.866403 85.112505 
L 335.576351 84.29058 
L 338.141273 82.849347 
L 338.996247 82.572386 
L 339.851221 82.456646 
L 340.706195 82.497857 
L 342.416143 82.912293 
L 344.126091 83.415631 
L 345.836039 83.620892 
L 346.691013 83.547579 
L 348.400961 83.096158 
L 350.110909 82.542716 
L 350.965883 82.396203 
L 351.820857 82.437651 
L 352.675831 82.731359 
L 353.530805 83.323765 
L 354.385779 84.234432 
L 355.240753 85.452763 
L 356.950701 88.633236 
L 360.370597 95.788283 
L 361.225571 97.271466 
L 362.080545 98.513349 
L 362.935519 99.484387 
L 363.790494 100.171481 
L 364.645468 100.578434 
L 365.500442 100.723006 
L 366.355416 100.636077 
L 367.21039 100.361745 
L 368.920338 99.462672 
L 370.630286 98.480373 
L 372.340234 97.796356 
L 374.050182 97.567853 
L 375.76013 97.696481 
L 379.180026 98.342949 
L 380.889974 98.848349 
L 382.599922 99.589951 
L 385.164844 100.85932 
L 386.019818 101.162986 
L 386.874792 101.340886 
L 387.729766 101.376126 
L 389.439714 101.076968 
L 391.149662 100.615724 
L 392.004636 100.499641 
L 392.85961 100.549898 
L 393.714584 100.811951 
L 394.569558 101.301784 
L 395.424532 102.000359 
L 399.699403 106.142798 
L 400.554377 106.521682 
L 401.409351 106.634023 
L 402.264325 106.487739 
L 403.119299 106.117718 
L 404.829247 104.919561 
L 408.249143 101.888844 
L 409.959091 100.16897 
L 411.669039 98.102843 
L 414.233961 94.396814 
L 415.943909 92.005213 
L 416.798883 91.006919 
L 417.653857 90.200974 
L 418.508831 89.613267 
L 419.363805 89.250724 
L 420.218779 89.104942 
L 421.073753 89.157295 
L 421.928727 89.383367 
L 422.783701 89.756179 
L 424.493649 90.843193 
L 426.203597 92.247163 
L 428.768519 94.729749 
L 432.188416 98.232144 
L 433.04339 98.95691 
L 433.898364 99.53193 
L 434.753338 99.916027 
L 435.608312 100.078442 
L 436.463286 100.0073 
L 437.31826 99.709339 
L 438.173234 99.212178 
L 439.883182 97.791388 
L 442.448104 95.41042 
L 443.303078 94.762151 
L 444.158052 94.257936 
L 445.013026 93.926385 
L 445.868 93.78667 
L 446.722974 93.846077 
L 447.577948 94.10349 
L 448.432922 94.550985 
L 449.287896 95.175011 
L 450.997844 96.877291 
L 452.707792 99.015303 
L 455.272714 102.387103 
L 456.982662 104.19755 
L 457.837636 104.855408 
L 458.69261 105.328776 
L 459.547584 105.628872 
L 461.257532 105.834577 
L 464.677429 105.835404 
L 469.807273 106.309192 
L 471.517221 106.109343 
L 476.647065 105.05221 
L 479.211987 104.901659 
L 481.776909 104.938081 
L 482.631883 105.059341 
L 483.486857 105.29734 
L 484.341831 105.697418 
L 485.196805 106.304156 
L 486.051779 107.155576 
L 486.906753 108.276708 
L 487.761727 109.679037 
L 488.616701 111.355768 
L 490.326649 115.407172 
L 493.746545 124.28075 
L 494.601519 126.060725 
L 495.456494 127.445883 
L 496.311468 128.350413 
L 497.166442 128.716887 
L 498.021416 128.524641 
L 498.87639 127.793857 
L 499.731364 126.584452 
L 500.586338 124.991948 
L 504.861208 115.810732 
L 505.716182 114.53163 
L 506.571156 113.571741 
L 507.42613 112.908614 
L 508.281104 112.483645 
L 511.701 111.416829 
L 512.555974 110.925092 
L 514.265922 109.484961 
L 517.685818 106.000618 
L 518.540792 105.334865 
L 519.395766 104.830841 
L 520.25074 104.500863 
L 521.105714 104.346122 
L 521.960688 104.362295 
L 522.815662 104.54005 
L 523.670636 104.870915 
L 525.380584 105.94293 
L 527.090532 107.416775 
L 528.800481 108.966811 
L 529.655455 109.621621 
L 530.510429 110.109902 
L 531.365403 110.375454 
L 532.220377 110.377538 
L 533.075351 110.098689 
L 533.930325 109.547192 
L 534.785299 108.756684 
L 536.495247 106.701078 
L 538.205195 104.530043 
L 539.060169 103.590659 
L 539.915143 102.823928 
L 540.770117 102.259357 
L 541.625091 101.902506 
L 542.480065 101.735569 
L 544.190013 101.815147 
L 546.754935 102.217418 
L 548.464883 102.235522 
L 550.174831 101.990422 
L 553.594727 101.388251 
L 555.304675 101.38708 
L 557.014623 101.710623 
L 558.724571 102.393013 
L 560.434519 103.426068 
L 565.564364 107.070279 
L 567.274312 107.717187 
L 571.549182 108.687976 
L 573.25913 109.542058 
L 576.679026 111.640005 
L 577.534 111.952336 
L 578.388974 112.08934 
L 579.243948 112.032268 
L 580.098922 111.781441 
L 580.953896 111.357656 
L 582.663844 110.155041 
L 585.228766 108.259075 
L 586.938714 107.431042 
L 588.648662 106.990382 
L 590.35861 106.586159 
L 591.213584 106.224587 
L 592.068558 105.661364 
L 592.923532 104.840692 
L 593.778506 103.731377 
L 594.633481 102.33024 
L 596.343429 98.78836 
L 600.618299 88.964349 
L 602.328247 86.037322 
L 603.183221 84.907215 
L 604.038195 83.989133 
L 604.893169 83.260019 
L 606.603117 82.232996 
L 610.877987 80.33208 
L 612.587935 79.241587 
L 614.297883 77.88142 
L 616.007831 76.279984 
L 617.717779 74.434014 
L 620.282701 71.273968 
L 621.992649 69.178144 
L 623.702597 67.474016 
L 624.557571 66.8593 
L 625.412545 66.421652 
L 626.267519 66.150241 
L 627.977468 65.966335 
L 629.687416 65.913124 
L 631.397364 65.596532 
L 633.107312 64.845633 
L 635.672234 63.209445 
L 637.382182 62.172081 
L 639.09213 61.377971 
L 640.802078 60.849575 
L 642.512026 60.590383 
L 644.221974 60.659201 
L 645.931922 61.109535 
L 647.64187 61.877676 
L 651.91674 64.025314 
L 654.481662 65.241928 
L 656.19161 66.264126 
L 659.611506 68.461132 
L 660.466481 68.806135 
L 661.321455 68.994263 
L 662.176429 69.020678 
L 663.886377 68.720821 
L 665.596325 68.413 
L 666.451299 68.463687 
L 667.306273 68.738882 
L 668.161247 69.266982 
L 669.016221 70.037833 
L 670.726169 72.079324 
L 672.436117 74.180351 
L 673.291091 75.018278 
L 674.146065 75.626144 
L 675.001039 75.976646 
L 675.856013 76.075519 
L 676.710987 75.955184 
L 678.420935 75.265886 
L 679.275909 74.810006 
L 679.275909 74.810006 
" clip-path="url(#p7e94c3ea64)" style="fill: none; stroke: #1f77b4; stroke-width: 1.5; stroke-linecap: square"/>
   </g>
   <g id="line2d_24">
    <path d="M 80.794091 288.667729 
L 88.488857 288.180248 
L 91.908753 287.600545 
L 95.328649 287.047515 
L 100.458494 286.396349 
L 103.023416 285.790356 
L 110.718182 283.602775 
L 112.42813 283.388901 
L 114.993052 283.353805 
L 118.412948 283.644579 
L 121.832844 283.8993 
L 124.397766 283.901419 
L 126.962688 283.718155 
L 132.947506 283.161772 
L 140.642273 283.05658 
L 144.062169 282.765502 
L 147.482065 282.746904 
L 150.046987 282.676753 
L 151.756935 282.4094 
L 152.611909 282.150754 
L 153.466883 281.765745 
L 154.321857 281.207779 
L 155.176831 280.412954 
L 156.031805 279.301124 
L 156.886779 277.769088 
L 157.741753 275.695391 
L 158.596727 272.941049 
L 159.451701 269.356132 
L 160.306675 264.790677 
L 161.161649 259.109436 
L 162.016623 252.208509 
L 162.871597 244.031647 
L 164.581545 223.950069 
L 166.291494 199.77491 
L 170.566364 134.781027 
L 172.276312 112.495865 
L 173.98626 94.218401 
L 174.841234 86.666597 
L 175.696208 80.145899 
L 176.551182 74.607131 
L 177.406156 69.985811 
L 178.26113 66.205163 
L 179.116104 63.177343 
L 179.971078 60.804324 
L 180.826052 58.980307 
L 181.681026 57.594687 
L 182.536 56.537803 
L 184.245948 55.024246 
L 188.520818 51.886717 
L 190.230766 50.298093 
L 191.940714 48.369186 
L 193.650662 46.065278 
L 196.215584 42.045927 
L 198.780506 37.917338 
L 200.490455 35.588372 
L 201.345429 34.676854 
L 202.200403 33.987331 
L 203.055377 33.55063 
L 203.910351 33.388208 
L 204.765325 33.508498 
L 205.620299 33.903153 
L 206.475273 34.549843 
L 207.330247 35.410884 
L 209.040195 37.570032 
L 212.460091 42.134691 
L 214.170039 43.965184 
L 215.879987 45.429848 
L 220.154857 48.665582 
L 221.864805 50.34338 
L 224.429727 53.403753 
L 226.994649 56.462407 
L 228.704597 58.161852 
L 231.269519 60.287584 
L 233.834442 62.430083 
L 238.964286 66.979579 
L 243.239156 70.314839 
L 244.09413 71.21443 
L 244.949104 72.29819 
L 245.804078 73.604019 
L 246.659052 75.157135 
L 248.369 79.007806 
L 250.078948 83.626354 
L 252.64387 90.648649 
L 253.498844 92.626737 
L 254.353818 94.283648 
L 255.208792 95.567345 
L 256.063766 96.454703 
L 256.91874 96.948993 
L 257.773714 97.072092 
L 258.628688 96.857862 
L 259.483662 96.340225 
L 260.338636 95.544752 
L 261.19361 94.481638 
L 262.048584 93.143063 
L 262.903558 91.505373 
L 263.758532 89.535719 
L 264.613506 87.20435 
L 266.323455 81.423097 
L 268.033403 74.391629 
L 271.453299 59.586014 
L 273.163247 53.345591 
L 274.873195 48.2893 
L 276.583143 44.298201 
L 278.293091 41.183985 
L 280.003039 38.788399 
L 281.712987 36.923612 
L 284.277909 34.589414 
L 286.842831 32.457372 
L 287.697805 31.880586 
L 288.552779 31.446463 
L 289.407753 31.201505 
L 290.262727 31.180845 
L 291.117701 31.399005 
L 291.972675 31.846029 
L 293.682623 33.262965 
L 296.247545 35.644396 
L 297.102519 36.209994 
L 297.957494 36.57638 
L 298.812468 36.730185 
L 299.667442 36.68596 
L 301.37739 36.181296 
L 303.087338 35.543923 
L 303.942312 35.325313 
L 304.797286 35.22315 
L 306.507234 35.376045 
L 309.92713 36.108795 
L 310.782104 36.102383 
L 311.637078 35.956981 
L 312.492052 35.672581 
L 314.202 34.777689 
L 316.766922 33.252702 
L 317.621896 32.878599 
L 318.47687 32.63189 
L 319.331844 32.533683 
L 320.186818 32.593502 
L 321.041792 32.809802 
L 322.75174 33.644763 
L 327.02661 36.331889 
L 327.881584 36.636053 
L 328.736558 36.804675 
L 329.591532 36.841499 
L 331.301481 36.599486 
L 337.286299 35.033932 
L 338.996247 34.88867 
L 340.706195 35.0115 
L 342.416143 35.398298 
L 345.836039 36.358527 
L 347.545987 36.469704 
L 348.400961 36.347587 
L 349.255935 36.090077 
L 350.110909 35.694286 
L 351.820857 34.514181 
L 353.530805 32.948362 
L 356.095727 30.477607 
L 357.805675 29.225809 
L 358.660649 28.823004 
L 359.515623 28.598766 
L 360.370597 28.565434 
L 361.225571 28.725017 
L 362.080545 29.069293 
L 363.790494 30.208613 
L 366.355416 32.286582 
L 367.21039 32.80494 
L 368.065364 33.125841 
L 368.920338 33.205864 
L 369.775312 33.027317 
L 370.630286 32.600191 
L 371.48526 31.960186 
L 373.195208 30.272002 
L 375.76013 27.6818 
L 377.470078 26.468714 
L 378.325052 26.079309 
L 379.180026 25.837039 
L 380.035 25.736224 
L 380.889974 25.769863 
L 381.744948 25.93286 
L 382.599922 26.223799 
L 383.454896 26.645249 
L 384.30987 27.20332 
L 385.164844 27.904896 
L 386.874792 29.759459 
L 388.58474 32.178189 
L 392.85961 39.003491 
L 393.714584 40.088104 
L 394.569558 40.964385 
L 395.424532 41.602813 
L 396.279506 41.987188 
L 397.134481 42.113443 
L 397.989455 41.989662 
L 398.844429 41.633854 
L 399.699403 41.074781 
L 401.409351 39.523188 
L 403.119299 37.815455 
L 403.974273 37.097407 
L 404.829247 36.575766 
L 405.684221 36.316679 
L 406.539195 36.365227 
L 407.394169 36.739443 
L 408.249143 37.428029 
L 409.104117 38.390314 
L 410.814065 40.855586 
L 412.524013 43.42335 
L 413.378987 44.496787 
L 414.233961 45.308945 
L 415.088935 45.789914 
L 415.943909 45.894673 
L 416.798883 45.607518 
L 417.653857 44.943022 
L 418.508831 43.9453 
L 420.218779 41.226654 
L 424.493649 33.618405 
L 426.203597 31.118667 
L 427.913545 28.998397 
L 429.623494 27.250148 
L 431.333442 25.935368 
L 432.188416 25.465159 
L 433.04339 25.123755 
L 434.753338 24.792268 
L 436.463286 24.7998 
L 439.028208 25.111809 
L 440.738156 25.509937 
L 442.448104 26.212515 
L 444.158052 27.283907 
L 446.722974 29.153003 
L 447.577948 29.652496 
L 448.432922 30.007701 
L 449.287896 30.187329 
L 450.14287 30.177545 
L 450.997844 29.985179 
L 452.707792 29.168024 
L 455.272714 27.617158 
L 456.127688 27.244778 
L 456.982662 27.028668 
L 457.837636 27.000016 
L 458.69261 27.169965 
L 459.547584 27.527498 
L 461.257532 28.65322 
L 462.967481 29.915874 
L 463.822455 30.427613 
L 464.677429 30.784935 
L 465.532403 30.955506 
L 466.387377 30.930165 
L 467.242351 30.722453 
L 468.952299 29.899145 
L 472.372195 27.93168 
L 473.227169 27.608416 
L 474.082143 27.40396 
L 474.937117 27.332423 
L 475.792091 27.403412 
L 476.647065 27.624885 
L 477.502039 28.00455 
L 478.357013 28.549468 
L 479.211987 29.266204 
L 480.066961 30.158836 
L 481.776909 32.460975 
L 483.486857 35.339625 
L 486.906753 41.498304 
L 488.616701 43.890875 
L 489.471675 44.750535 
L 490.326649 45.351835 
L 491.181623 45.684919 
L 492.036597 45.753021 
L 492.891571 45.5688 
L 493.746545 45.152814 
L 494.601519 44.533377 
L 496.311468 42.815961 
L 498.87639 39.603312 
L 501.441312 36.478119 
L 503.15126 34.759197 
L 504.861208 33.358338 
L 509.136078 30.409198 
L 511.701 28.709559 
L 513.410948 27.82615 
L 515.120896 27.286651 
L 516.830844 27.07722 
L 519.395766 27.116541 
L 519.395766 27.116541 
" clip-path="url(#p7e94c3ea64)" style="fill: none; stroke: #ff7f0e; stroke-width: 1.5; stroke-linecap: square"/>
   </g>
   <g id="line2d_25">
    <path d="M 80.794091 283.229317 
L 83.359013 281.844552 
L 89.343831 278.243555 
L 91.908753 276.494221 
L 97.038597 272.806598 
L 99.603519 271.282716 
L 108.15326 266.679805 
L 110.718182 264.869881 
L 114.138078 262.057027 
L 118.412948 258.211479 
L 120.122896 256.484396 
L 121.832844 254.478589 
L 123.542792 252.063918 
L 125.25274 249.164128 
L 126.962688 245.777291 
L 129.52761 239.951757 
L 132.947506 231.888091 
L 134.657455 228.474961 
L 136.367403 225.81369 
L 138.077351 223.849541 
L 140.642273 221.553229 
L 144.062169 218.401445 
L 145.772117 216.872622 
L 147.482065 215.689249 
L 148.337039 215.287595 
L 149.192013 215.023562 
L 150.901961 214.855508 
L 153.466883 214.906749 
L 154.321857 214.764662 
L 155.176831 214.432662 
L 156.031805 213.859934 
L 156.886779 213.016178 
L 157.741753 211.902312 
L 159.451701 209.019966 
L 162.016623 204.223309 
L 162.871597 202.846314 
L 163.726571 201.689356 
L 164.581545 200.780346 
L 165.436519 200.120214 
L 166.291494 199.685201 
L 167.146468 199.430911 
L 168.856416 199.236449 
L 170.566364 199.075832 
L 172.276312 198.640802 
L 176.551182 196.944113 
L 177.406156 196.808416 
L 178.26113 196.805281 
L 179.971078 197.15616 
L 185.100922 198.841393 
L 186.81087 198.965104 
L 187.665844 198.872409 
L 188.520818 198.642914 
L 189.375792 198.241948 
L 190.230766 197.635566 
L 191.08574 196.798303 
L 191.940714 195.721021 
L 193.650662 192.935576 
L 197.070558 186.577253 
L 198.780506 183.99974 
L 200.490455 181.920786 
L 203.055377 178.851068 
L 204.765325 176.267601 
L 206.475273 173.186788 
L 209.040195 168.396804 
L 210.750143 165.730663 
L 212.460091 163.742182 
L 214.170039 162.36998 
L 215.879987 161.507994 
L 216.734961 161.271285 
L 217.589935 161.183844 
L 218.444909 161.26109 
L 219.299883 161.508173 
L 221.009831 162.433742 
L 222.719779 163.582636 
L 223.574753 164.037295 
L 224.429727 164.289533 
L 225.284701 164.257601 
L 226.139675 163.877498 
L 226.994649 163.118642 
L 227.849623 161.983805 
L 228.704597 160.512798 
L 230.414545 156.894617 
L 232.124494 153.135271 
L 232.979468 151.503455 
L 233.834442 150.165949 
L 234.689416 149.183346 
L 235.54439 148.575503 
L 236.399364 148.32119 
L 237.254338 148.362108 
L 238.964286 148.971108 
L 240.674234 149.5984 
L 241.529208 149.702303 
L 242.384182 149.599285 
L 243.239156 149.274414 
L 244.09413 148.738719 
L 245.804078 147.172876 
L 250.933922 141.559903 
L 252.64387 140.133136 
L 254.353818 139.129549 
L 255.208792 138.852364 
L 256.063766 138.778114 
L 256.91874 138.949346 
L 257.773714 139.397155 
L 258.628688 140.131391 
L 259.483662 141.128817 
L 261.19361 143.650219 
L 262.903558 146.202863 
L 263.758532 147.223961 
L 264.613506 147.965156 
L 265.468481 148.386715 
L 266.323455 148.480727 
L 267.178429 148.275663 
L 268.033403 147.824875 
L 269.743351 146.469988 
L 271.453299 145.01153 
L 272.308273 144.409068 
L 273.163247 143.953674 
L 274.018221 143.671451 
L 274.873195 143.571057 
L 275.728169 143.641776 
L 277.438117 144.160635 
L 279.148065 144.829378 
L 280.003039 145.062049 
L 280.858013 145.147584 
L 281.712987 145.037821 
L 282.567961 144.702015 
L 283.422935 144.127135 
L 284.277909 143.31895 
L 285.987857 141.123508 
L 290.262727 134.676779 
L 291.972675 132.78102 
L 292.827649 132.107009 
L 293.682623 131.634878 
L 294.537597 131.374909 
L 295.392571 131.334922 
L 296.247545 131.516392 
L 297.102519 131.911654 
L 297.957494 132.501748 
L 299.667442 134.09012 
L 301.37739 135.760299 
L 302.232364 136.40913 
L 303.087338 136.818393 
L 303.942312 136.920778 
L 304.797286 136.674406 
L 305.65226 136.071048 
L 306.507234 135.136801 
L 308.217182 132.551895 
L 309.92713 129.689202 
L 310.782104 128.432545 
L 311.637078 127.420658 
L 312.492052 126.723146 
L 313.347026 126.379496 
L 314.202 126.401119 
L 315.056974 126.770762 
L 315.911948 127.448782 
L 316.766922 128.376926 
L 318.47687 130.685341 
L 320.186818 133.04397 
L 321.041792 134.047317 
L 321.896766 134.852041 
L 322.75174 135.41904 
L 323.606714 135.733463 
L 324.461688 135.803951 
L 325.316662 135.662515 
L 327.02661 134.965777 
L 328.736558 134.188804 
L 329.591532 133.945876 
L 330.446506 133.87207 
L 331.301481 133.997606 
L 332.156455 134.328066 
L 333.011429 134.848007 
L 334.721377 136.282492 
L 336.431325 137.805234 
L 337.286299 138.417953 
L 338.141273 138.851172 
L 338.996247 139.069506 
L 339.851221 139.06273 
L 340.706195 138.8519 
L 342.416143 137.998968 
L 344.981065 136.463226 
L 346.691013 135.669557 
L 348.400961 135.104275 
L 350.110909 134.747373 
L 351.820857 134.606989 
L 354.385779 134.575524 
L 355.240753 134.460295 
L 356.095727 134.209171 
L 356.950701 133.781686 
L 357.805675 133.154501 
L 358.660649 132.329486 
L 360.370597 130.206042 
L 362.935519 126.676716 
L 364.645468 124.805797 
L 365.500442 124.160292 
L 366.355416 123.7457 
L 367.21039 123.575989 
L 368.065364 123.64925 
L 368.920338 123.952198 
L 369.775312 124.459264 
L 371.48526 125.942656 
L 376.615104 131.197064 
L 377.470078 131.794355 
L 378.325052 132.225121 
L 379.180026 132.464387 
L 380.035 132.492117 
L 380.889974 132.295572 
L 381.744948 131.873226 
L 382.599922 131.234248 
L 383.454896 130.402165 
L 385.164844 128.313836 
L 390.294688 121.551937 
L 392.85961 118.096402 
L 395.424532 114.512826 
L 396.279506 113.520741 
L 397.134481 112.736545 
L 397.989455 112.207354 
L 398.844429 111.955721 
L 399.699403 111.982549 
L 400.554377 112.265393 
L 401.409351 112.768987 
L 403.119299 114.232073 
L 406.539195 117.47547 
L 408.249143 118.589116 
L 409.104117 118.941657 
L 409.959091 119.145437 
L 410.814065 119.19672 
L 411.669039 119.091445 
L 412.524013 118.824611 
L 413.378987 118.394974 
L 414.233961 117.80816 
L 415.943909 116.225341 
L 420.218779 111.624652 
L 421.073753 110.956128 
L 421.928727 110.445012 
L 422.783701 110.095598 
L 423.638675 109.89096 
L 425.348623 109.799338 
L 428.768519 110.051627 
L 430.478468 110.284043 
L 432.188416 110.77437 
L 433.898364 111.596753 
L 436.463286 113.02271 
L 437.31826 113.353164 
L 438.173234 113.527322 
L 439.028208 113.51232 
L 439.883182 113.297826 
L 440.738156 112.901411 
L 444.158052 110.677142 
L 445.013026 110.377952 
L 445.868 110.331856 
L 446.722974 110.575761 
L 447.577948 111.108013 
L 448.432922 111.89097 
L 452.707792 116.677994 
L 453.562766 117.308644 
L 455.272714 118.198538 
L 456.982662 119.022666 
L 458.69261 120.241799 
L 462.967481 124.050334 
L 463.822455 124.505516 
L 465.532403 125.04141 
L 467.242351 125.583837 
L 468.097325 126.114102 
L 468.952299 126.946059 
L 469.807273 128.139925 
L 470.662247 129.716849 
L 471.517221 131.64939 
L 473.227169 136.249879 
L 474.937117 140.956211 
L 475.792091 142.978973 
L 476.647065 144.611234 
L 477.502039 145.76538 
L 478.357013 146.397309 
L 479.211987 146.508357 
L 480.066961 146.138597 
L 480.921935 145.355166 
L 481.776909 144.24245 
L 483.486857 141.381484 
L 486.906753 135.185162 
L 488.616701 132.705939 
L 489.471675 131.736268 
L 490.326649 130.95765 
L 491.181623 130.363301 
L 492.036597 129.931572 
L 493.746545 129.45043 
L 495.456494 129.307496 
L 498.021416 129.219681 
L 498.87639 129.04343 
L 499.731364 128.683447 
L 500.586338 128.06726 
L 501.441312 127.132412 
L 502.296286 125.837936 
L 503.15126 124.172974 
L 504.006234 122.160399 
L 505.716182 117.363654 
L 508.281104 109.818455 
L 509.136078 107.665445 
L 509.991052 105.843081 
L 510.846026 104.392307 
L 511.701 103.320666 
L 512.555974 102.597884 
L 513.410948 102.165438 
L 514.265922 101.945435 
L 516.830844 101.787287 
L 518.540792 101.582529 
L 521.105714 100.954418 
L 525.380584 99.812334 
L 527.090532 99.010868 
L 528.800481 97.707718 
L 532.220377 94.506857 
L 533.075351 93.959339 
L 533.930325 93.604076 
L 534.785299 93.428416 
L 537.350221 93.264024 
L 538.205195 93.006586 
L 539.060169 92.510985 
L 539.915143 91.748088 
L 540.770117 90.736268 
L 542.480065 88.232538 
L 544.190013 85.723908 
L 545.044987 84.690697 
L 545.899961 83.8781 
L 546.754935 83.302126 
L 547.609909 82.952054 
L 548.464883 82.794376 
L 550.174831 82.885643 
L 552.739753 83.465053 
L 558.724571 85.003846 
L 560.434519 85.789857 
L 562.144468 87.053607 
L 563.854416 88.736641 
L 565.564364 90.464055 
L 566.419338 91.178811 
L 567.274312 91.712231 
L 568.129286 92.016813 
L 568.98426 92.067183 
L 569.839234 91.85283 
L 570.694208 91.38272 
L 571.549182 90.683012 
L 573.25913 88.777225 
L 575.824052 85.662372 
L 576.679026 84.850297 
L 577.534 84.250362 
L 578.388974 83.892769 
L 579.243948 83.782568 
L 580.098922 83.903372 
L 580.953896 84.220578 
L 582.663844 85.26023 
L 586.08374 87.634815 
L 586.938714 88.04244 
L 587.793688 88.303188 
L 588.648662 88.390415 
L 589.503636 88.285662 
L 590.35861 87.981498 
L 591.213584 87.483238 
L 592.068558 86.811949 
L 593.778506 85.084053 
L 596.343429 82.233001 
L 598.053377 80.715462 
L 598.908351 80.170679 
L 599.763325 79.777175 
L 601.473273 79.372294 
L 606.603117 78.775597 
L 608.313065 78.673521 
L 609.168039 78.828956 
L 610.023013 79.18464 
L 610.877987 79.757565 
L 611.732961 80.532305 
L 616.007831 85.096904 
L 616.862805 85.607862 
L 617.717779 85.875383 
L 618.572753 85.903138 
L 619.427727 85.713607 
L 620.282701 85.344883 
L 621.992649 84.26208 
L 624.557571 82.498692 
L 626.267519 81.669967 
L 627.977468 81.228643 
L 633.107312 80.480107 
L 636.527208 79.485934 
L 639.09213 78.499581 
L 642.512026 76.969182 
L 643.367 76.72285 
L 644.221974 76.593964 
L 645.076948 76.594137 
L 646.786896 76.948563 
L 648.496844 77.638889 
L 650.206792 78.551943 
L 651.91674 79.730608 
L 653.626688 81.255806 
L 658.756532 86.508159 
L 659.611506 87.111522 
L 660.466481 87.557988 
L 661.321455 87.828103 
L 662.176429 87.9138 
L 663.031403 87.809034 
L 663.886377 87.516829 
L 664.741351 87.046302 
L 666.451299 85.65543 
L 670.726169 81.380626 
L 671.581143 80.801795 
L 672.436117 80.443624 
L 673.291091 80.353029 
L 674.146065 80.565982 
L 675.001039 81.10638 
L 675.856013 81.97742 
L 676.710987 83.161381 
L 678.420935 86.284275 
L 679.275909 88.082415 
L 679.275909 88.082415 
" clip-path="url(#p7e94c3ea64)" style="fill: none; stroke: #2ca02c; stroke-width: 1.5; stroke-linecap: square"/>
   </g>
   <g id="line2d_26">
    <path d="M 80.794091 304.074545 
L 84.213987 302.735441 
L 85.923935 302.275453 
L 87.633883 302.067701 
L 89.343831 302.08244 
L 92.763727 302.257129 
L 95.328649 302.097711 
L 99.603519 301.648367 
L 104.733364 301.45485 
L 106.443312 301.030315 
L 107.298286 300.646957 
L 108.15326 300.120276 
L 109.008234 299.432572 
L 109.863208 298.570651 
L 110.718182 297.527332 
L 112.42813 294.891704 
L 114.138078 291.568696 
L 115.848026 287.655082 
L 117.557974 283.242919 
L 119.267922 278.344308 
L 120.97787 272.84007 
L 122.687818 266.510735 
L 124.397766 259.153227 
L 126.107714 250.721134 
L 128.672636 236.545355 
L 132.947506 212.520675 
L 137.222377 190.719603 
L 139.787299 176.733095 
L 142.352221 160.767145 
L 146.627091 132.626507 
L 148.337039 123.016662 
L 149.192013 118.940174 
L 150.046987 115.423264 
L 150.901961 112.494933 
L 151.756935 110.159485 
L 152.611909 108.398066 
L 153.466883 107.170795 
L 154.321857 106.415157 
L 155.176831 106.045488 
L 156.031805 105.954545 
L 158.596727 106.031423 
L 159.451701 105.711819 
L 160.306675 105.022291 
L 161.161649 103.890766 
L 162.016623 102.289093 
L 162.871597 100.240047 
L 164.581545 95.103512 
L 167.146468 86.632454 
L 168.856416 81.971868 
L 169.71139 80.222057 
L 170.566364 78.920512 
L 171.421338 78.074696 
L 172.276312 77.66484 
L 173.131286 77.647613 
L 173.98626 77.962735 
L 174.841234 78.538691 
L 176.551182 80.167075 
L 179.116104 82.835146 
L 183.390974 86.844386 
L 184.245948 87.933109 
L 185.100922 89.254742 
L 185.955896 90.833259 
L 187.665844 94.652471 
L 189.375792 98.714029 
L 190.230766 100.462754 
L 191.08574 101.803793 
L 191.940714 102.601355 
L 192.795688 102.768636 
L 193.650662 102.282025 
L 194.505636 101.185145 
L 195.36061 99.583404 
L 197.070558 95.479552 
L 198.780506 91.292554 
L 199.635481 89.517309 
L 200.490455 88.068955 
L 201.345429 86.981384 
L 202.200403 86.253449 
L 203.055377 85.853938 
L 203.910351 85.731829 
L 204.765325 85.822892 
L 206.475273 86.359281 
L 208.185221 86.904357 
L 209.040195 87.032919 
L 209.895169 87.011885 
L 210.750143 86.822336 
L 211.605117 86.467804 
L 213.315065 85.376545 
L 215.879987 83.570222 
L 216.734961 83.139241 
L 217.589935 82.847069 
L 218.444909 82.694138 
L 220.154857 82.710043 
L 222.719779 82.926016 
L 223.574753 82.882785 
L 224.429727 82.723963 
L 225.284701 82.420443 
L 226.139675 81.947507 
L 226.994649 81.284134 
L 227.849623 80.420313 
L 229.559571 78.123638 
L 233.834442 71.430187 
L 234.689416 70.570301 
L 235.54439 70.053396 
L 236.399364 69.928988 
L 237.254338 70.22442 
L 238.109312 70.947269 
L 238.964286 72.083595 
L 239.81926 73.603886 
L 240.674234 75.46273 
L 242.384182 79.955736 
L 247.514026 94.731679 
L 250.078948 101.122512 
L 254.353818 111.212561 
L 256.063766 114.676782 
L 257.773714 117.40909 
L 258.628688 118.470959 
L 259.483662 119.339779 
L 260.338636 120.034918 
L 260.338636 120.034918 
" clip-path="url(#p7e94c3ea64)" style="fill: none; stroke: #d62728; stroke-width: 1.5; stroke-linecap: square"/>
   </g>
   <g id="line2d_27">
    <path d="M 80.794091 283.523486 
L 82.504039 282.059722 
L 84.213987 280.293882 
L 85.923935 278.267465 
L 87.633883 275.994128 
L 89.343831 273.463901 
L 91.053779 270.657733 
L 92.763727 267.540022 
L 94.473675 263.996132 
L 96.183623 259.761971 
L 97.038597 257.254689 
L 97.893571 254.398227 
L 98.748545 251.120709 
L 99.603519 247.349479 
L 100.458494 243.020561 
L 102.168442 232.503731 
L 103.87839 219.431883 
L 105.588338 204.133235 
L 111.573156 146.429673 
L 113.283104 132.691779 
L 114.993052 121.099845 
L 116.703 111.570512 
L 118.412948 103.756108 
L 120.122896 97.235133 
L 121.832844 91.732584 
L 123.542792 87.225982 
L 124.397766 85.386626 
L 125.25274 83.842193 
L 126.107714 82.588535 
L 126.962688 81.601575 
L 127.817662 80.836576 
L 129.52761 79.707565 
L 131.237558 78.637369 
L 132.947506 77.251636 
L 135.512429 74.865002 
L 136.367403 74.262631 
L 137.222377 73.901179 
L 138.077351 73.851785 
L 138.932325 74.159743 
L 139.787299 74.838402 
L 140.642273 75.870046 
L 141.497247 77.207079 
L 143.207195 80.506696 
L 145.772117 85.734222 
L 147.482065 88.541151 
L 148.337039 89.624312 
L 149.192013 90.503523 
L 150.901961 91.841843 
L 152.611909 93.114348 
L 153.466883 93.91881 
L 154.321857 94.906427 
L 156.031805 97.470382 
L 160.306675 105.020788 
L 162.016623 107.243631 
L 163.726571 108.806723 
L 164.581545 109.377791 
L 165.436519 109.812449 
L 166.291494 110.089396 
L 167.146468 110.166743 
L 168.001442 109.992353 
L 168.856416 109.514735 
L 169.71139 108.696919 
L 170.566364 107.528416 
L 171.421338 106.028562 
L 173.131286 102.255005 
L 176.551182 93.867738 
L 178.26113 90.3189 
L 179.971078 87.464462 
L 181.681026 85.19804 
L 183.390974 83.319917 
L 185.100922 81.694007 
L 186.81087 80.362299 
L 187.665844 79.875055 
L 188.520818 79.56143 
L 189.375792 79.472268 
L 190.230766 79.660261 
L 191.08574 80.181302 
L 191.940714 81.088981 
L 192.795688 82.43545 
L 193.650662 84.268504 
L 194.505636 86.629339 
L 195.36061 89.549804 
L 196.215584 93.0507 
L 197.070558 97.141921 
L 198.780506 107.07886 
L 200.490455 119.171253 
L 205.620299 158.657639 
L 206.475273 163.191882 
L 207.330247 166.418981 
L 208.185221 168.190967 
L 209.040195 168.477671 
L 209.895169 167.375193 
L 210.750143 165.096869 
L 211.605117 161.94643 
L 215.025013 147.660654 
L 215.879987 145.157565 
L 216.734961 143.434718 
L 217.589935 142.527264 
L 218.444909 142.402024 
L 219.299883 142.973356 
L 220.154857 144.118693 
L 221.009831 145.695969 
L 225.284701 155.017812 
L 226.139675 156.305856 
L 226.994649 157.191927 
L 227.849623 157.624694 
L 228.704597 157.577129 
L 229.559571 157.046239 
L 230.414545 156.052841 
L 231.269519 154.641351 
L 232.124494 152.878457 
L 233.834442 148.659119 
L 236.399364 142.228798 
L 237.254338 140.487967 
L 238.109312 139.086832 
L 238.964286 138.072634 
L 239.81926 137.465062 
L 240.674234 137.260654 
L 241.529208 137.434492 
L 242.384182 137.948441 
L 243.239156 138.756089 
L 244.09413 139.80669 
L 245.804078 142.41362 
L 249.223974 147.946975 
L 250.078948 149.056672 
L 250.933922 149.980709 
L 251.788896 150.716422 
L 253.498844 151.72659 
L 256.063766 152.865207 
L 257.773714 153.977619 
L 259.483662 155.548458 
L 262.048584 158.215295 
L 262.903558 158.957051 
L 263.758532 159.523183 
L 264.613506 159.866241 
L 265.468481 159.956605 
L 266.323455 159.78519 
L 267.178429 159.365234 
L 268.033403 158.731015 
L 269.743351 157.035346 
L 272.308273 154.367887 
L 274.018221 153.091853 
L 274.873195 152.672318 
L 275.728169 152.393422 
L 277.438117 152.18293 
L 279.148065 152.263154 
L 282.567961 152.551936 
L 284.277909 152.518105 
L 285.987857 152.231165 
L 287.697805 151.565685 
L 289.407753 150.416642 
L 291.117701 148.76995 
L 292.827649 146.720027 
L 295.392571 143.160434 
L 297.102519 140.50867 
L 298.812468 137.530301 
L 300.522416 134.136488 
L 303.087338 128.366777 
L 312.492052 106.342926 
L 314.202 102.804145 
L 315.911948 99.863906 
L 316.766922 98.720573 
L 317.621896 97.836818 
L 318.47687 97.226414 
L 319.331844 96.884602 
L 320.186818 96.78953 
L 321.041792 96.906089 
L 321.896766 97.188555 
L 323.606714 98.063087 
L 326.171636 99.498974 
L 327.881584 100.12232 
L 328.736558 100.246265 
L 329.591532 100.213282 
L 330.446506 100.009928 
L 331.301481 99.629885 
L 332.156455 99.079386 
L 333.866403 97.557079 
L 337.286299 94.114294 
L 338.141273 93.495917 
L 338.996247 93.059341 
L 339.851221 92.813889 
L 340.706195 92.747291 
L 342.416143 93.01108 
L 344.981065 93.85508 
L 346.691013 94.608311 
L 348.400961 95.695894 
L 351.820857 98.353973 
L 352.675831 98.671261 
L 353.530805 98.65831 
L 354.385779 98.258719 
L 355.240753 97.464627 
L 356.095727 96.320487 
L 357.805675 93.388699 
L 359.515623 90.502509 
L 360.370597 89.401066 
L 361.225571 88.646763 
L 362.080545 88.278932 
L 362.935519 88.295928 
L 363.790494 88.662274 
L 364.645468 89.316665 
L 366.355416 91.180664 
L 369.775312 95.303595 
L 372.340234 97.913065 
L 374.905156 100.14154 
L 376.615104 101.275067 
L 378.325052 102.025141 
L 380.889974 102.954454 
L 381.744948 103.458789 
L 382.599922 104.155436 
L 383.454896 105.063841 
L 385.164844 107.387244 
L 386.874792 109.796791 
L 387.729766 110.732623 
L 388.58474 111.333842 
L 389.439714 111.522712 
L 390.294688 111.263585 
L 391.149662 110.569893 
L 392.004636 109.499769 
L 393.714584 106.596217 
L 397.134481 100.24814 
L 399.699403 96.132218 
L 401.409351 93.657975 
L 403.119299 91.59832 
L 403.974273 90.84359 
L 404.829247 90.332268 
L 405.684221 90.088148 
L 406.539195 90.10556 
L 407.394169 90.345342 
L 410.814065 91.946297 
L 411.669039 92.062069 
L 412.524013 91.947429 
L 413.378987 91.608802 
L 415.088935 90.491387 
L 415.943909 89.908962 
L 416.798883 89.467353 
L 417.653857 89.275054 
L 418.508831 89.41409 
L 419.363805 89.926488 
L 420.218779 90.808161 
L 421.073753 92.009133 
L 422.783701 94.996057 
L 424.493649 97.983177 
L 425.348623 99.201611 
L 426.203597 100.132627 
L 427.058571 100.733356 
L 427.913545 100.993861 
L 428.768519 100.928069 
L 429.623494 100.571516 
L 430.478468 99.974395 
L 432.188416 98.293286 
L 435.608312 94.514655 
L 437.31826 92.975652 
L 439.028208 91.754528 
L 441.59313 90.307168 
L 445.013026 88.438722 
L 446.722974 87.26245 
L 448.432922 85.771992 
L 450.14287 83.913301 
L 454.41774 78.732693 
L 455.272714 77.970765 
L 456.127688 77.421028 
L 456.982662 77.115934 
L 457.837636 77.068951 
L 458.69261 77.271315 
L 459.547584 77.693926 
L 461.257532 79.005062 
L 463.822455 81.262909 
L 465.532403 82.429241 
L 467.242351 83.219561 
L 469.807273 84.264278 
L 470.662247 84.771818 
L 472.372195 86.200701 
L 475.792091 89.77282 
L 476.647065 90.432863 
L 477.502039 90.892752 
L 478.357013 91.145283 
L 479.211987 91.212433 
L 480.921935 90.980556 
L 486.906753 89.558952 
L 487.761727 89.080343 
L 488.616701 88.416111 
L 489.471675 87.543969 
L 490.326649 86.457476 
L 492.036597 83.711049 
L 496.311468 75.889953 
L 497.166442 74.675047 
L 498.021416 73.681518 
L 498.87639 72.913008 
L 499.731364 72.3475 
L 501.441312 71.651506 
L 504.006234 70.893255 
L 505.716182 70.14742 
L 509.991052 67.89865 
L 511.701 67.461974 
L 513.410948 67.463083 
L 515.120896 67.784611 
L 518.540792 68.557924 
L 520.25074 68.699451 
L 521.960688 68.602505 
L 523.670636 68.283567 
L 525.380584 67.781605 
L 527.945506 66.758154 
L 530.510429 65.446814 
L 533.930325 63.544752 
L 535.640273 62.863838 
L 536.495247 62.682245 
L 537.350221 62.637377 
L 538.205195 62.74254 
L 539.060169 62.999091 
L 540.770117 63.89436 
L 543.335039 65.536631 
L 544.190013 65.931471 
L 545.044987 66.158561 
L 545.899961 66.181828 
L 546.754935 65.982006 
L 547.609909 65.559866 
L 548.464883 64.932163 
L 550.174831 63.201567 
L 553.594727 59.225271 
L 555.304675 57.736852 
L 556.159649 57.21594 
L 557.014623 56.843859 
L 558.724571 56.466308 
L 564.70939 55.937038 
L 567.274312 55.336807 
L 574.114104 53.504062 
L 575.824052 53.396611 
L 581.80887 53.429477 
L 585.228766 53.266832 
L 587.793688 53.375319 
L 592.923532 53.75139 
L 594.633481 53.519934 
L 596.343429 52.939474 
L 598.908351 51.600664 
L 601.473273 50.329196 
L 603.183221 49.738154 
L 607.458091 48.658762 
L 610.023013 48.189955 
L 611.732961 48.14381 
L 616.007831 48.426569 
L 617.717779 48.138226 
L 619.427727 47.511153 
L 621.992649 46.468698 
L 622.847623 46.262584 
L 623.702597 46.182712 
L 624.557571 46.242465 
L 625.412545 46.437363 
L 627.122494 47.143596 
L 629.687416 48.42353 
L 631.397364 48.97551 
L 632.252338 49.084584 
L 633.107312 49.071256 
L 634.81726 48.704543 
L 636.527208 48.007155 
L 639.09213 46.869194 
L 640.802078 46.438405 
L 641.657052 46.396738 
L 642.512026 46.483649 
L 644.221974 47.012545 
L 646.786896 48.31454 
L 648.496844 49.120352 
L 650.206792 49.613788 
L 651.91674 49.707495 
L 653.626688 49.409119 
L 655.336636 48.74698 
L 657.046584 47.756287 
L 661.321455 44.809917 
L 662.176429 44.400309 
L 663.031403 44.119494 
L 663.886377 43.977869 
L 664.741351 43.974779 
L 665.596325 44.100634 
L 667.306273 44.68293 
L 669.016221 45.626136 
L 670.726169 46.878579 
L 672.436117 48.392484 
L 679.275909 54.91626 
L 679.275909 54.91626 
" clip-path="url(#p7e94c3ea64)" style="fill: none; stroke: #9467bd; stroke-width: 1.5; stroke-linecap: square"/>
   </g>
   <g id="line2d_28">
    <path d="M 80.794091 288.496694 
L 84.213987 288.507353 
L 86.778909 288.318882 
L 90.198805 287.820025 
L 96.183623 286.675633 
L 99.603519 285.815319 
L 102.168442 284.96118 
L 104.733364 283.918711 
L 107.298286 282.625158 
L 109.008234 281.485188 
L 110.718182 279.941524 
L 111.573156 278.958996 
L 112.42813 277.806131 
L 114.138078 274.918802 
L 115.848026 271.199443 
L 117.557974 266.669243 
L 119.267922 261.450075 
L 121.832844 252.729453 
L 125.25274 240.111353 
L 127.817662 229.724957 
L 132.947506 207.777245 
L 133.802481 204.906618 
L 134.657455 202.546286 
L 135.512429 200.742412 
L 136.367403 199.480047 
L 137.222377 198.680345 
L 138.077351 198.206631 
L 139.787299 197.505612 
L 140.642273 196.894628 
L 141.497247 195.895664 
L 142.352221 194.415512 
L 143.207195 192.433661 
L 144.917143 187.26317 
L 146.627091 181.605755 
L 147.482065 179.139079 
L 148.337039 177.193965 
L 149.192013 175.926198 
L 150.046987 175.428256 
L 150.901961 175.718821 
L 151.756935 176.74489 
L 152.611909 178.392989 
L 154.321857 182.913938 
L 156.886779 190.154369 
L 157.741753 192.107694 
L 158.596727 193.673777 
L 159.451701 194.808685 
L 160.306675 195.500497 
L 161.161649 195.768803 
L 162.016623 195.658591 
L 162.871597 195.235186 
L 163.726571 194.578389 
L 168.856416 189.871869 
L 171.421338 188.322445 
L 174.841234 186.538271 
L 176.551182 186.021584 
L 177.406156 185.943909 
L 179.116104 186.138321 
L 184.245948 187.433788 
L 186.81087 187.629747 
L 189.375792 187.558666 
L 191.08574 187.327874 
L 192.795688 186.84215 
L 193.650662 186.457143 
L 194.505636 185.947964 
L 195.36061 185.293786 
L 196.215584 184.476223 
L 197.070558 183.482872 
L 198.780506 180.956444 
L 200.490455 177.776654 
L 205.620299 167.249644 
L 206.475273 166.016364 
L 207.330247 165.124738 
L 208.185221 164.616925 
L 209.040195 164.500901 
L 209.895169 164.740733 
L 210.750143 165.257162 
L 213.315065 167.182663 
L 214.170039 167.480787 
L 215.025013 167.419948 
L 215.879987 166.948969 
L 216.734961 166.063087 
L 217.589935 164.800263 
L 218.444909 163.225205 
L 220.154857 159.451615 
L 225.284701 147.399956 
L 226.994649 144.283083 
L 227.849623 143.099161 
L 228.704597 142.221994 
L 229.559571 141.677661 
L 230.414545 141.472632 
L 231.269519 141.588867 
L 232.124494 141.983009 
L 233.834442 143.317981 
L 235.54439 144.747272 
L 236.399364 145.244753 
L 237.254338 145.48071 
L 238.109312 145.391739 
L 238.964286 144.937975 
L 239.81926 144.107406 
L 240.674234 142.915957 
L 241.529208 141.401825 
L 243.239156 137.68191 
L 245.804078 131.854266 
L 246.659052 130.319709 
L 247.514026 129.194928 
L 248.369 128.588904 
L 249.223974 128.592505 
L 250.078948 129.269534 
L 250.933922 130.651811 
L 251.788896 132.737974 
L 252.64387 135.491995 
L 253.498844 138.848435 
L 255.208792 146.991344 
L 260.338636 173.982301 
L 261.19361 177.506777 
L 262.048584 180.461774 
L 262.903558 182.781913 
L 263.758532 184.431185 
L 264.613506 185.403328 
L 265.468481 185.72245 
L 266.323455 185.442128 
L 267.178429 184.645113 
L 268.033403 183.441237 
L 271.453299 177.519319 
L 272.308273 176.54841 
L 273.163247 176.02536 
L 274.018221 175.990429 
L 274.873195 176.421872 
L 275.728169 177.240019 
L 277.438117 179.53477 
L 279.148065 181.797126 
L 280.003039 182.645248 
L 280.858013 183.2203 
L 281.712987 183.490795 
L 282.567961 183.436411 
L 283.422935 183.038945 
L 284.277909 182.274321 
L 285.132883 181.117674 
L 285.987857 179.543217 
L 286.842831 177.542269 
L 287.697805 175.130661 
L 289.407753 169.295368 
L 292.827649 156.436822 
L 294.537597 151.07806 
L 295.392571 148.868952 
L 296.247545 146.974628 
L 297.102519 145.371706 
L 297.957494 144.029955 
L 298.812468 142.924173 
L 299.667442 142.046861 
L 300.522416 141.411574 
L 301.37739 141.056418 
L 302.232364 141.035006 
L 303.087338 141.405533 
L 303.942312 142.213396 
L 304.797286 143.475887 
L 305.65226 145.168172 
L 307.362208 149.528767 
L 309.92713 156.613573 
L 311.637078 160.387045 
L 313.347026 163.147895 
L 316.766922 167.751437 
L 321.041792 174.32029 
L 322.75174 176.233085 
L 327.02661 179.94999 
L 330.446506 183.75254 
L 331.301481 184.353234 
L 332.156455 184.613166 
L 333.011429 184.479393 
L 333.866403 183.953602 
L 334.721377 183.093798 
L 338.141273 178.815014 
L 338.996247 178.184812 
L 339.851221 177.875201 
L 340.706195 177.866861 
L 341.561169 178.091456 
L 344.126091 179.120362 
L 344.981065 179.250237 
L 345.836039 179.166916 
L 346.691013 178.854306 
L 347.545987 178.324221 
L 348.400961 177.605698 
L 350.110909 175.741228 
L 351.820857 173.458991 
L 353.530805 170.759681 
L 355.240753 167.56529 
L 358.660649 160.550319 
L 359.515623 159.103144 
L 360.370597 157.957343 
L 361.225571 157.173181 
L 362.080545 156.773184 
L 362.935519 156.73853 
L 363.790494 157.008933 
L 365.500442 158.072355 
L 366.355416 158.630282 
L 367.21039 159.054109 
L 368.065364 159.254984 
L 368.920338 159.176521 
L 369.775312 158.804244 
L 370.630286 158.164892 
L 372.340234 156.374356 
L 374.050182 154.590041 
L 374.905156 153.96539 
L 375.76013 153.626035 
L 376.615104 153.616961 
L 377.470078 153.953516 
L 378.325052 154.625588 
L 379.180026 155.60699 
L 380.035 156.861863 
L 381.744948 160.03731 
L 383.454896 163.848765 
L 387.729766 174.026636 
L 389.439714 177.509213 
L 391.149662 180.3252 
L 392.004636 181.454702 
L 392.85961 182.397371 
L 393.714584 183.162176 
L 395.424532 184.235514 
L 397.134481 184.886196 
L 399.699403 185.484666 
L 401.409351 185.662908 
L 403.119299 185.511689 
L 403.974273 185.268085 
L 405.684221 184.418786 
L 407.394169 183.182381 
L 409.959091 181.178902 
L 411.669039 180.187115 
L 413.378987 179.661326 
L 415.088935 179.552107 
L 416.798883 179.722007 
L 418.508831 180.076896 
L 422.783701 181.212397 
L 423.638675 181.216997 
L 424.493649 181.011416 
L 425.348623 180.534102 
L 426.203597 179.737482 
L 427.058571 178.595871 
L 427.913545 177.112274 
L 429.623494 173.276821 
L 433.898364 162.319682 
L 435.608312 158.998846 
L 436.463286 157.734258 
L 437.31826 156.740458 
L 438.173234 156.00847 
L 439.028208 155.519235 
L 439.883182 155.246158 
L 440.738156 155.156384 
L 441.59313 155.21503 
L 443.303078 155.662075 
L 445.013026 156.503904 
L 445.868 157.135037 
L 446.722974 157.977919 
L 447.577948 159.095877 
L 448.432922 160.5406 
L 449.287896 162.336832 
L 450.997844 166.866692 
L 453.562766 174.343678 
L 454.41774 176.357784 
L 455.272714 177.857142 
L 456.127688 178.731813 
L 456.982662 178.934108 
L 457.837636 178.491468 
L 458.69261 177.50677 
L 462.112506 172.207633 
L 462.967481 171.741345 
L 463.822455 172.014619 
L 464.677429 173.111455 
L 465.532403 175.024669 
L 466.387377 177.657484 
L 468.097325 184.317815 
L 469.807273 191.159717 
L 470.662247 194.018139 
L 471.517221 196.235608 
L 472.372195 197.686784 
L 473.227169 198.309428 
L 474.082143 198.103217 
L 474.937117 197.116641 
L 475.792091 195.434587 
L 476.647065 193.162999 
L 478.357013 187.302695 
L 480.066961 180.354774 
L 485.196805 158.354847 
L 486.906753 152.340008 
L 487.761727 149.925603 
L 488.616701 147.97317 
L 489.471675 146.483172 
L 490.326649 145.40693 
L 491.181623 144.646232 
L 493.746545 142.819753 
L 494.601519 141.876362 
L 495.456494 140.599605 
L 496.311468 138.972579 
L 498.021416 134.906531 
L 499.731364 130.613751 
L 500.586338 128.77875 
L 501.441312 127.346593 
L 502.296286 126.426149 
L 503.15126 126.084645 
L 504.006234 126.345019 
L 504.861208 127.186611 
L 505.716182 128.549017 
L 506.571156 130.339167 
L 508.281104 134.712672 
L 509.991052 139.241983 
L 511.701 143.000786 
L 512.555974 144.430117 
L 513.410948 145.554553 
L 514.265922 146.418115 
L 515.97587 147.666498 
L 517.685818 148.803072 
L 521.105714 151.458047 
L 521.960688 151.879215 
L 522.815662 152.010073 
L 523.670636 151.763434 
L 524.52561 151.081198 
L 525.380584 149.941891 
L 526.235558 148.363372 
L 527.090532 146.399711 
L 528.800481 141.675842 
L 531.365403 134.265494 
L 532.220377 132.138619 
L 533.075351 130.321696 
L 533.930325 128.864271 
L 534.785299 127.789364 
L 535.640273 127.092184 
L 536.495247 126.742871 
L 537.350221 126.689989 
L 538.205195 126.865875 
L 539.915143 127.601086 
L 541.625091 128.384591 
L 543.335039 128.85014 
L 545.044987 128.907717 
L 546.754935 128.655522 
L 548.464883 128.196458 
L 550.174831 127.500684 
L 551.884779 126.417296 
L 553.594727 124.820548 
L 555.304675 122.771947 
L 557.869597 119.540142 
L 559.579545 117.862393 
L 560.434519 117.272125 
L 561.289494 116.861122 
L 562.144468 116.622409 
L 562.999442 116.539631 
L 563.854416 116.592608 
L 565.564364 117.027403 
L 567.274312 117.805334 
L 568.98426 118.864083 
L 570.694208 120.169828 
L 573.25913 122.469728 
L 576.679026 125.546864 
L 578.388974 126.782637 
L 580.098922 127.745525 
L 583.518818 129.383603 
L 585.228766 130.593557 
L 586.08374 131.412761 
L 587.793688 133.51824 
L 590.35861 137.444012 
L 592.068558 140.022911 
L 593.778506 142.202622 
L 595.488455 143.918008 
L 597.198403 145.301193 
L 599.763325 147.101076 
L 602.328247 148.624459 
L 604.038195 149.314626 
L 605.748143 149.636525 
L 607.458091 149.560701 
L 609.168039 149.081664 
L 610.877987 148.199025 
L 612.587935 146.95063 
L 617.717779 142.563828 
L 619.427727 141.592049 
L 620.282701 141.30361 
L 621.137675 141.169338 
L 621.992649 141.199137 
L 622.847623 141.390321 
L 624.557571 142.163575 
L 626.267519 143.077734 
L 627.122494 143.365431 
L 627.977468 143.396427 
L 628.832442 143.065836 
L 629.687416 142.286613 
L 630.54239 141.00107 
L 631.397364 139.188164 
L 632.252338 136.86732 
L 633.962286 130.967138 
L 637.382182 117.502246 
L 638.237156 114.631869 
L 639.09213 112.231058 
L 639.947104 110.397884 
L 640.802078 109.195489 
L 641.657052 108.64634 
L 642.512026 108.730973 
L 643.367 109.390334 
L 644.221974 110.532034 
L 645.076948 112.04153 
L 647.64187 117.545229 
L 649.351818 121.019873 
L 651.061766 123.884229 
L 652.771714 126.236405 
L 656.19161 130.652393 
L 659.611506 135.347505 
L 661.321455 137.196552 
L 662.176429 137.808624 
L 663.031403 138.142102 
L 663.886377 138.155991 
L 664.741351 137.82587 
L 665.596325 137.148847 
L 666.451299 136.146743 
L 667.306273 134.864695 
L 669.016221 131.732348 
L 672.436117 125.150735 
L 675.001039 120.960431 
L 678.420935 115.892069 
L 679.275909 114.710333 
L 679.275909 114.710333 
" clip-path="url(#p7e94c3ea64)" style="fill: none; stroke: #8c564b; stroke-width: 1.5; stroke-linecap: square"/>
   </g>
   <g id="line2d_29">
    <path d="M 80.794091 283.939046 
L 85.923935 281.526957 
L 87.633883 280.961846 
L 89.343831 280.573293 
L 91.908753 280.250182 
L 96.183623 280.056669 
L 101.313468 279.828387 
L 104.733364 279.457892 
L 107.298286 278.979878 
L 109.863208 278.285223 
L 112.42813 277.338435 
L 114.993052 276.094563 
L 117.557974 274.540171 
L 125.25274 269.46156 
L 127.817662 268.174969 
L 132.092532 266.336311 
L 134.657455 265.385049 
L 137.222377 264.702108 
L 139.787299 264.341418 
L 143.207195 264.178312 
L 147.482065 263.969631 
L 156.886779 263.150514 
L 159.451701 263.028382 
L 162.016623 262.667034 
L 165.436519 261.878956 
L 175.696208 259.297115 
L 179.116104 258.27365 
L 181.681026 257.796363 
L 184.245948 257.604606 
L 188.520818 257.364599 
L 192.795688 256.811513 
L 197.925532 256.183075 
L 201.345429 255.716876 
L 203.055377 255.300883 
L 204.765325 254.701768 
L 207.330247 253.49965 
L 210.750143 251.581782 
L 213.315065 249.876138 
L 215.025013 248.388551 
L 216.734961 246.387763 
L 218.444909 243.690281 
L 220.154857 240.215544 
L 221.864805 236.037181 
L 224.429727 228.93752 
L 227.849623 219.41389 
L 229.559571 215.216309 
L 231.269519 211.647641 
L 232.979468 208.721978 
L 235.54439 205.032755 
L 238.109312 201.185649 
L 243.239156 192.939427 
L 245.804078 189.607552 
L 247.514026 187.353628 
L 249.223974 184.645694 
L 250.933922 181.19405 
L 252.64387 176.899152 
L 254.353818 171.862079 
L 256.91874 163.289315 
L 258.628688 156.91543 
L 260.338636 149.850527 
L 265.468481 127.615934 
L 266.323455 124.838176 
L 267.178429 122.563196 
L 268.033403 120.792161 
L 268.888377 119.476835 
L 269.743351 118.531108 
L 270.598325 117.846379 
L 274.873195 115.047763 
L 276.583143 113.441113 
L 279.148065 111.004635 
L 280.003039 110.406091 
L 280.858013 110.017257 
L 281.712987 109.892368 
L 282.567961 110.076705 
L 283.422935 110.593176 
L 284.277909 111.444701 
L 285.132883 112.606345 
L 286.842831 115.627498 
L 289.407753 120.620533 
L 290.262727 122.053429 
L 291.117701 123.259854 
L 291.972675 124.203553 
L 292.827649 124.869109 
L 293.682623 125.256313 
L 294.537597 125.37683 
L 295.392571 125.245782 
L 296.247545 124.880934 
L 297.102519 124.301637 
L 297.957494 123.526111 
L 299.667442 121.493966 
L 304.797286 114.554683 
L 306.507234 112.889469 
L 315.911948 105.069356 
L 318.47687 103.487389 
L 320.186818 102.428462 
L 321.896766 101.103314 
L 324.461688 98.60195 
L 326.171636 96.920659 
L 327.881584 95.510939 
L 330.446506 93.848847 
L 334.721377 91.190921 
L 335.576351 90.870866 
L 336.431325 90.735165 
L 337.286299 90.801337 
L 338.141273 91.048486 
L 340.706195 92.125664 
L 341.561169 92.263433 
L 342.416143 92.153995 
L 343.271117 91.768732 
L 344.126091 91.133132 
L 347.545987 87.959241 
L 348.400961 87.592737 
L 349.255935 87.566402 
L 350.110909 87.887985 
L 350.965883 88.512743 
L 354.385779 91.805612 
L 355.240753 92.165608 
L 356.095727 92.140203 
L 356.950701 91.702636 
L 357.805675 90.875958 
L 358.660649 89.731708 
L 362.080545 84.332921 
L 362.935519 83.39858 
L 363.790494 82.808447 
L 364.645468 82.583841 
L 365.500442 82.701645 
L 366.355416 83.094335 
L 368.920338 84.811063 
L 369.775312 85.16767 
L 370.630286 85.268098 
L 371.48526 85.079523 
L 372.340234 84.615012 
L 374.050182 83.102426 
L 375.76013 81.414902 
L 376.615104 80.736162 
L 377.470078 80.260562 
L 378.325052 80.0301 
L 379.180026 80.061564 
L 380.035 80.352759 
L 380.889974 80.880177 
L 381.744948 81.607358 
L 383.454896 83.456995 
L 385.164844 85.406322 
L 386.019818 86.242548 
L 386.874792 86.895329 
L 387.729766 87.308009 
L 388.58474 87.440826 
L 389.439714 87.273766 
L 390.294688 86.808622 
L 391.149662 86.070561 
L 392.004636 85.101362 
L 393.714584 82.69098 
L 396.279506 78.789138 
L 397.989455 76.630082 
L 398.844429 75.819359 
L 399.699403 75.23406 
L 400.554377 74.89669 
L 401.409351 74.819239 
L 402.264325 75.001018 
L 403.119299 75.431875 
L 403.974273 76.093556 
L 404.829247 76.964023 
L 406.539195 79.241361 
L 408.249143 82.113391 
L 409.959091 85.441088 
L 413.378987 92.315413 
L 414.233961 93.700903 
L 415.088935 94.785588 
L 415.943909 95.496242 
L 416.798883 95.781366 
L 417.653857 95.624491 
L 418.508831 95.048285 
L 419.363805 94.117438 
L 421.073753 91.595631 
L 422.783701 88.934209 
L 424.493649 86.746988 
L 426.203597 85.089077 
L 428.768519 82.787282 
L 430.478468 80.920721 
L 433.04339 77.602486 
L 436.463286 73.034502 
L 438.173234 71.060073 
L 439.883182 69.460835 
L 441.59313 68.240304 
L 443.303078 67.296624 
L 445.868 66.180957 
L 447.577948 65.637594 
L 449.287896 65.357229 
L 450.997844 65.443917 
L 452.707792 65.950879 
L 454.41774 66.825336 
L 457.837636 68.767088 
L 458.69261 69.071397 
L 459.547584 69.248014 
L 461.257532 69.238621 
L 464.677429 68.808442 
L 465.532403 68.915608 
L 466.387377 69.186143 
L 467.242351 69.625885 
L 468.952299 70.898875 
L 470.662247 72.279154 
L 471.517221 72.810975 
L 472.372195 73.138903 
L 473.227169 73.217834 
L 474.082143 73.038061 
L 474.937117 72.624641 
L 476.647065 71.364723 
L 478.357013 70.1237 
L 479.211987 69.714903 
L 480.066961 69.50589 
L 480.921935 69.497073 
L 482.631883 69.917638 
L 484.341831 70.46331 
L 485.196805 70.614633 
L 486.051779 70.630109 
L 486.906753 70.504404 
L 488.616701 69.952405 
L 490.326649 69.364682 
L 491.181623 69.193734 
L 492.036597 69.142924 
L 493.746545 69.343479 
L 495.456494 69.600011 
L 496.311468 69.573409 
L 497.166442 69.36028 
L 498.021416 68.924799 
L 498.87639 68.258435 
L 499.731364 67.381287 
L 501.441312 65.179538 
L 504.861208 60.443582 
L 509.991052 54.090069 
L 511.701 52.081461 
L 513.410948 50.412756 
L 515.120896 49.250741 
L 515.97587 48.874391 
L 516.830844 48.629807 
L 517.685818 48.512812 
L 518.540792 48.523854 
L 519.395766 48.664521 
L 520.25074 48.940085 
L 521.105714 49.352557 
L 522.815662 50.568083 
L 524.52561 52.176333 
L 527.090532 54.739182 
L 528.800481 56.110527 
L 529.655455 56.604445 
L 530.510429 56.944587 
L 531.365403 57.121195 
L 532.220377 57.130649 
L 533.075351 56.975941 
L 533.930325 56.666713 
L 535.640273 55.64143 
L 537.350221 54.20009 
L 543.335039 48.558971 
L 544.190013 48.041731 
L 545.044987 47.668353 
L 545.899961 47.443188 
L 546.754935 47.359657 
L 548.464883 47.533119 
L 552.739753 48.442259 
L 554.449701 48.41074 
L 556.159649 48.018131 
L 558.724571 46.977106 
L 560.434519 46.345342 
L 561.289494 46.168512 
L 562.144468 46.133861 
L 562.999442 46.263953 
L 563.854416 46.565646 
L 564.70939 47.030186 
L 566.419338 48.33498 
L 569.839234 51.299686 
L 571.549182 52.383907 
L 572.404156 52.739989 
L 573.25913 52.94868 
L 574.114104 52.996206 
L 574.969078 52.877239 
L 575.824052 52.598978 
L 577.534 51.670979 
L 579.243948 50.601898 
L 580.098922 50.189856 
L 580.953896 49.953145 
L 581.80887 49.939251 
L 582.663844 50.170586 
L 583.518818 50.632525 
L 585.228766 52.020583 
L 586.938714 53.411457 
L 587.793688 53.860737 
L 588.648662 54.051815 
L 589.503636 53.96032 
L 590.35861 53.60427 
L 592.068558 52.354972 
L 593.778506 50.995005 
L 594.633481 50.478588 
L 595.488455 50.130858 
L 596.343429 49.954199 
L 598.053377 49.983924 
L 600.618299 50.258207 
L 603.183221 50.204155 
L 605.748143 50.158542 
L 608.313065 50.461333 
L 616.007831 51.897851 
L 621.137675 53.367341 
L 622.847623 53.502115 
L 624.557571 53.340294 
L 627.122494 52.752102 
L 631.397364 51.494689 
L 633.962286 50.757469 
L 635.672234 50.537212 
L 636.527208 50.576181 
L 638.237156 50.998355 
L 639.947104 51.799258 
L 642.512026 53.177553 
L 644.221974 53.805297 
L 645.076948 53.950728 
L 645.931922 53.966201 
L 646.786896 53.845903 
L 647.64187 53.592766 
L 649.351818 52.741099 
L 652.771714 50.520994 
L 653.626688 50.142009 
L 654.481662 49.949271 
L 655.336636 49.993819 
L 656.19161 50.307946 
L 657.046584 50.899457 
L 657.901558 51.744268 
L 659.611506 53.92611 
L 661.321455 56.054195 
L 662.176429 56.806586 
L 663.031403 57.231208 
L 663.886377 57.288875 
L 664.741351 56.989035 
L 665.596325 56.388421 
L 667.306273 54.66837 
L 669.016221 52.952337 
L 669.871195 52.285051 
L 670.726169 51.776505 
L 672.436117 51.114692 
L 674.146065 50.509251 
L 675.001039 50.054145 
L 675.856013 49.427586 
L 676.710987 48.606909 
L 678.420935 46.425745 
L 679.275909 45.145981 
L 679.275909 45.145981 
" clip-path="url(#p7e94c3ea64)" style="fill: none; stroke: #e377c2; stroke-width: 1.5; stroke-linecap: square"/>
   </g>
   <g id="line2d_30">
    <path d="M 80.794091 284.204507 
L 85.923935 282.916501 
L 89.343831 282.39029 
L 96.183623 281.487932 
L 99.603519 280.827828 
L 102.168442 280.164161 
L 104.733364 279.283109 
L 109.008234 277.498374 
L 113.283104 275.611207 
L 115.848026 274.204018 
L 118.412948 272.408839 
L 121.832844 269.587528 
L 126.107714 266.139484 
L 128.672636 264.067146 
L 130.382584 262.478025 
L 132.092532 260.655985 
L 134.657455 257.574941 
L 137.222377 254.20067 
L 138.932325 251.703867 
L 140.642273 248.885998 
L 143.207195 244.047131 
L 146.627091 237.486365 
L 148.337039 234.86483 
L 149.192013 233.839368 
L 150.046987 233.025386 
L 150.901961 232.419696 
L 151.756935 232.001897 
L 153.466883 231.559577 
L 155.176831 231.235881 
L 156.031805 230.954536 
L 156.886779 230.521578 
L 157.741753 229.905219 
L 158.596727 229.093277 
L 160.306675 226.934627 
L 162.016623 224.274669 
L 165.436519 218.747272 
L 167.146468 216.495272 
L 168.001442 215.62108 
L 168.856416 214.952288 
L 169.71139 214.506515 
L 170.566364 214.286088 
L 171.421338 214.278083 
L 172.276312 214.450449 
L 173.98626 215.141056 
L 175.696208 215.895697 
L 176.551182 216.159525 
L 177.406156 216.297868 
L 178.26113 216.296766 
L 179.116104 216.160166 
L 180.826052 215.566429 
L 187.665844 212.357761 
L 189.375792 211.186655 
L 191.08574 209.50393 
L 191.940714 208.429387 
L 192.795688 207.174459 
L 193.650662 205.715748 
L 194.505636 204.021864 
L 195.36061 202.058934 
L 197.070558 197.231761 
L 198.780506 191.255949 
L 202.200403 178.383672 
L 203.055377 175.695035 
L 203.910351 173.433221 
L 204.765325 171.647013 
L 205.620299 170.342235 
L 206.475273 169.484509 
L 207.330247 169.00963 
L 208.185221 168.832941 
L 209.040195 168.863786 
L 212.460091 169.430413 
L 213.315065 169.373765 
L 214.170039 169.158479 
L 215.025013 168.765383 
L 215.879987 168.189218 
L 216.734961 167.437758 
L 218.444909 165.504804 
L 222.719779 160.121989 
L 223.574753 159.326833 
L 224.429727 158.713086 
L 225.284701 158.299645 
L 226.139675 158.089364 
L 226.994649 158.070763 
L 227.849623 158.218225 
L 229.559571 158.847862 
L 232.124494 159.955066 
L 233.834442 160.392117 
L 235.54439 160.45467 
L 237.254338 160.171919 
L 239.81926 159.369889 
L 244.09413 157.880838 
L 244.949104 157.412599 
L 245.804078 156.757212 
L 246.659052 155.846355 
L 247.514026 154.622174 
L 248.369 153.048324 
L 249.223974 151.118842 
L 250.933922 146.338526 
L 255.208792 133.156966 
L 256.063766 131.1181 
L 256.91874 129.447637 
L 257.773714 128.1713 
L 258.628688 127.290315 
L 259.483662 126.789086 
L 260.338636 126.639141 
L 261.19361 126.809427 
L 262.048584 127.271212 
L 262.903558 128.001014 
L 263.758532 128.980837 
L 264.613506 130.190427 
L 266.323455 133.172184 
L 268.888377 138.099711 
L 269.743351 139.494734 
L 270.598325 140.609326 
L 271.453299 141.381868 
L 272.308273 141.787629 
L 273.163247 141.848495 
L 274.018221 141.626609 
L 277.438117 139.973432 
L 278.293091 139.872729 
L 279.148065 140.022102 
L 280.003039 140.428776 
L 280.858013 141.071604 
L 282.567961 142.87212 
L 285.987857 146.864937 
L 286.842831 147.644009 
L 287.697805 148.26375 
L 288.552779 148.702152 
L 289.407753 148.942084 
L 290.262727 148.971506 
L 291.117701 148.786237 
L 291.972675 148.389295 
L 292.827649 147.795048 
L 294.537597 146.146538 
L 297.102519 143.367249 
L 297.957494 142.628636 
L 298.812468 142.079786 
L 299.667442 141.752816 
L 300.522416 141.655399 
L 301.37739 141.773061 
L 302.232364 142.073165 
L 303.942312 143.046749 
L 308.217182 145.940888 
L 309.92713 146.860008 
L 311.637078 147.51633 
L 313.347026 147.856877 
L 315.056974 147.890184 
L 319.331844 147.642907 
L 320.186818 147.792652 
L 321.041792 148.080991 
L 321.896766 148.524948 
L 322.75174 149.129327 
L 324.461688 150.758888 
L 327.881584 154.489593 
L 328.736558 155.158273 
L 329.591532 155.603833 
L 330.446506 155.797267 
L 331.301481 155.737364 
L 332.156455 155.451915 
L 333.866403 154.439272 
L 335.576351 153.320503 
L 337.286299 152.539495 
L 338.996247 152.172719 
L 341.561169 151.817419 
L 343.271117 151.260514 
L 344.981065 150.296884 
L 346.691013 148.99051 
L 350.965883 145.372452 
L 351.820857 144.829792 
L 352.675831 144.428572 
L 353.530805 144.194236 
L 354.385779 144.137981 
L 355.240753 144.252618 
L 356.950701 144.863462 
L 359.515623 145.940459 
L 361.225571 146.243834 
L 362.935519 146.127946 
L 364.645468 145.719432 
L 366.355416 145.078072 
L 368.065364 144.084943 
L 368.920338 143.395125 
L 370.630286 141.568076 
L 372.340234 139.250342 
L 374.905156 135.700491 
L 375.76013 134.75918 
L 376.615104 134.042241 
L 377.470078 133.595113 
L 378.325052 133.447027 
L 379.180026 133.608407 
L 380.035 134.070749 
L 380.889974 134.804947 
L 382.599922 136.88446 
L 385.164844 140.472741 
L 386.019818 141.499993 
L 386.874792 142.348097 
L 387.729766 142.98408 
L 388.58474 143.396755 
L 389.439714 143.591731 
L 390.294688 143.587045 
L 391.149662 143.4105 
L 392.85961 142.65837 
L 394.569558 141.542637 
L 397.134481 139.485126 
L 404.829247 132.83514 
L 406.539195 131.820907 
L 407.394169 131.512332 
L 408.249143 131.363581 
L 409.104117 131.38094 
L 409.959091 131.554874 
L 411.669039 132.25982 
L 415.088935 134.002889 
L 416.798883 134.624075 
L 420.218779 135.529197 
L 421.928727 135.894058 
L 423.638675 136.041836 
L 425.348623 135.848766 
L 429.623494 134.919441 
L 431.333442 135.074746 
L 434.753338 135.795346 
L 435.608312 135.770987 
L 436.463286 135.594362 
L 437.31826 135.268184 
L 439.028208 134.284835 
L 440.738156 133.206229 
L 441.59313 132.773592 
L 442.448104 132.472822 
L 443.303078 132.328401 
L 444.158052 132.344606 
L 445.868 132.774014 
L 448.432922 133.71146 
L 449.287896 133.882661 
L 450.14287 133.910397 
L 450.997844 133.774214 
L 451.852818 133.470708 
L 453.562766 132.4351 
L 457.837636 129.066163 
L 458.69261 128.588246 
L 459.547584 128.26144 
L 460.402558 128.11355 
L 461.257532 128.161664 
L 462.112506 128.410813 
L 462.967481 128.851931 
L 464.677429 130.19331 
L 468.097325 133.314473 
L 468.952299 133.874049 
L 469.807273 134.268679 
L 470.662247 134.485443 
L 471.517221 134.528553 
L 472.372195 134.419878 
L 474.082143 133.908955 
L 475.792091 133.400473 
L 476.647065 133.321465 
L 477.502039 133.452467 
L 478.357013 133.853826 
L 479.211987 134.567592 
L 480.066961 135.612983 
L 480.921935 136.980927 
L 482.631883 140.498456 
L 485.196805 146.421247 
L 486.051779 148.151506 
L 486.906753 149.606725 
L 487.761727 150.725989 
L 488.616701 151.479266 
L 489.471675 151.86815 
L 490.326649 151.92264 
L 491.181623 151.697654 
L 492.036597 151.26268 
L 494.601519 149.434209 
L 496.311468 148.338425 
L 498.021416 147.576956 
L 499.731364 147.15838 
L 501.441312 147.051134 
L 503.15126 147.210558 
L 506.571156 147.780692 
L 508.281104 147.752031 
L 509.136078 147.57626 
L 510.846026 146.873715 
L 512.555974 145.784659 
L 515.97587 143.3064 
L 517.685818 142.391892 
L 518.540792 142.097602 
L 519.395766 141.932619 
L 520.25074 141.908978 
L 521.105714 142.035955 
L 521.960688 142.319581 
L 522.815662 142.76166 
L 523.670636 143.357283 
L 525.380584 144.957743 
L 527.945506 147.980784 
L 529.655455 149.981197 
L 531.365403 151.608157 
L 532.220377 152.200907 
L 533.075351 152.616225 
L 533.930325 152.842274 
L 534.785299 152.876728 
L 535.640273 152.727254 
L 536.495247 152.413235 
L 538.205195 151.408538 
L 543.335039 147.754607 
L 545.899961 146.348603 
L 551.029805 143.715835 
L 552.739753 142.592744 
L 554.449701 141.201807 
L 557.014623 138.676086 
L 559.579545 136.171597 
L 561.289494 134.878067 
L 562.999442 133.972493 
L 564.70939 133.355105 
L 567.274312 132.681491 
L 569.839234 132.256609 
L 571.549182 132.183316 
L 575.824052 132.240094 
L 577.534 132.020604 
L 579.243948 131.57628 
L 585.228766 129.568503 
L 586.938714 129.506663 
L 587.793688 129.651897 
L 588.648662 129.923071 
L 590.35861 130.826779 
L 592.068558 132.095331 
L 595.488455 134.842557 
L 597.198403 135.95855 
L 598.908351 136.820153 
L 600.618299 137.42554 
L 602.328247 137.734133 
L 604.038195 137.656781 
L 604.893169 137.444762 
L 605.748143 137.107768 
L 607.458091 136.068156 
L 609.168039 134.622567 
L 612.587935 131.395054 
L 614.297883 130.203368 
L 615.152857 129.82204 
L 616.007831 129.600725 
L 616.862805 129.536624 
L 617.717779 129.615759 
L 619.427727 130.112871 
L 621.137675 130.900908 
L 623.702597 132.353086 
L 627.977468 135.139806 
L 630.54239 136.709264 
L 636.527208 139.996521 
L 639.09213 142.052103 
L 640.802078 143.36607 
L 641.657052 143.8592 
L 642.512026 144.182292 
L 643.367 144.307672 
L 644.221974 144.227234 
L 645.076948 143.953528 
L 646.786896 142.959796 
L 650.206792 140.491911 
L 651.91674 139.595254 
L 653.626688 139.006252 
L 663.886377 136.458564 
L 665.596325 136.438547 
L 668.161247 136.719415 
L 670.726169 136.969106 
L 672.436117 136.915441 
L 674.146065 136.652455 
L 677.565961 135.787597 
L 679.275909 135.361511 
L 679.275909 135.361511 
" clip-path="url(#p7e94c3ea64)" style="fill: none; stroke: #7f7f7f; stroke-width: 1.5; stroke-linecap: square"/>
   </g>
   <g id="line2d_31">
    <path d="M 80.794091 284.883011 
L 81.649065 284.610846 
L 82.504039 284.319196 
L 83.359013 284.017196 
L 84.213987 283.714949 
L 85.068961 283.42255 
L 85.923935 283.148979 
L 86.778909 282.901465 
L 87.633883 282.684719 
L 88.488857 282.500712 
L 89.343831 282.348665 
L 90.198805 282.225382 
L 91.053779 282.12576 
L 91.908753 282.043383 
L 92.763727 281.971218 
L 93.618701 281.902119 
L 94.473675 281.829457 
L 95.328649 281.747321 
L 96.183623 281.650972 
L 97.038597 281.536948 
L 97.893571 281.403279 
L 98.748545 281.249502 
L 99.603519 281.076811 
L 100.458494 280.887651 
L 101.313468 280.68557 
L 102.168442 280.474561 
L 103.023416 280.258283 
L 103.87839 280.039707 
L 104.733364 279.820292 
L 105.588338 279.600063 
L 106.443312 279.377729 
L 107.298286 279.151277 
L 108.15326 278.918557 
L 109.008234 278.678225 
L 109.863208 278.430278 
L 110.718182 278.176258 
L 111.573156 277.919272 
L 112.42813 277.663501 
L 113.283104 277.413892 
L 114.138078 277.175185 
L 114.993052 276.951359 
L 115.848026 276.745275 
L 116.703 276.558019 
L 117.557974 276.388834 
L 118.412948 276.234847 
L 119.267922 276.091424 
L 120.122896 275.95229 
L 120.97787 275.810086 
L 121.832844 275.656822 
L 122.687818 275.484671 
L 123.542792 275.285845 
L 124.397766 275.053878 
L 125.25274 274.782855 
L 126.107714 274.468038 
L 126.962688 274.105276 
L 127.817662 273.691422 
L 128.672636 273.224098 
L 129.52761 272.70174 
L 130.382584 272.123602 
L 131.237558 271.489878 
L 132.092532 270.801367 
L 132.947506 270.059892 
L 133.802481 269.267522 
L 134.657455 268.427203 
L 135.512429 267.543309 
L 136.367403 266.621129 
L 137.222377 265.66782 
L 138.077351 264.692146 
L 138.932325 263.704537 
L 139.787299 262.714801 
L 140.642273 261.732282 
L 141.497247 260.763227 
L 142.352221 259.80968 
L 143.207195 258.868689 
L 144.062169 257.932651 
L 144.917143 256.988825 
L 145.772117 256.020905 
L 146.627091 255.01128 
L 147.482065 253.942296 
L 148.337039 252.79791 
L 149.192013 251.565171 
L 150.046987 250.234673 
L 150.901961 248.800347 
L 151.756935 247.259122 
L 152.611909 245.609714 
L 153.466883 243.851991 
L 154.321857 241.986343 
L 155.176831 240.014368 
L 156.031805 237.940152 
L 156.886779 235.772283 
L 157.741753 233.52612 
L 158.596727 231.22578 
L 159.451701 228.903918 
L 160.306675 226.601676 
L 161.161649 224.365291 
L 162.016623 222.242638 
L 162.871597 220.278083 
" clip-path="url(#p7e94c3ea64)" style="fill: none; stroke: #bcbd22; stroke-width: 1.5; stroke-linecap: square"/>
   </g>
   <g id="patch_3">
    <path d="M 50.87 318.04 
L 50.87 10.8 
" style="fill: none; stroke: #000000; stroke-width: 0.8; stroke-linejoin: miter; stroke-linecap: square"/>
   </g>
   <g id="patch_4">
    <path d="M 709.2 318.04 
L 709.2 10.8 
" style="fill: none; stroke: #000000; stroke-width: 0.8; stroke-linejoin: miter; stroke-linecap: square"/>
   </g>
   <g id="patch_5">
    <path d="M 50.87 318.04 
L 709.2 318.04 
" style="fill: none; stroke: #000000; stroke-width: 0.8; stroke-linejoin: miter; stroke-linecap: square"/>
   </g>
   <g id="patch_6">
    <path d="M 50.87 10.8 
L 709.2 10.8 
" style="fill: none; stroke: #000000; stroke-width: 0.8; stroke-linejoin: miter; stroke-linecap: square"/>
   </g>
   <g id="legend_1">
    <g id="patch_7">
     <path d="M 542.785938 313.04 
L 702.2 313.04 
Q 704.2 313.04 704.2 311.04 
L 704.2 179.936875 
Q 704.2 177.936875 702.2 177.936875 
L 542.785938 177.936875 
Q 540.785938 177.936875 540.785938 179.936875 
L 540.785938 311.04 
Q 540.785938 313.04 542.785938 313.04 
z
" style="fill: #ffffff; opacity: 0.8; stroke: #cccccc; stroke-linejoin: miter"/>
    </g>
    <g id="line2d_32">
     <path d="M 544.785938 186.035313 
L 554.785938 186.035313 
L 564.785938 186.035313 
" style="fill: none; stroke: #1f77b4; stroke-width: 1.5; stroke-linecap: square"/>
    </g>
    <g id="text_15">
     <text style="font-size: 10px; font-family: 'DejaVu Sans', 'Bitstream Vera Sans', 'Computer Modern Sans Serif', 'Lucida Grande', 'Verdana', 'Geneva', 'Lucid', 'Arial', 'Helvetica', 'Avant Garde', sans-serif; text-anchor: start" x="572.785938" y="189.535313" transform="rotate(-0 572.785938 189.535313)">A. Baseline</text>
    </g>
    <g id="line2d_33">
     <path d="M 544.785938 200.713438 
L 554.785938 200.713438 
L 564.785938 200.713438 
" style="fill: none; stroke: #ff7f0e; stroke-width: 1.5; stroke-linecap: square"/>
    </g>
    <g id="text_16">
     <text style="font-size: 10px; font-family: 'DejaVu Sans', 'Bitstream Vera Sans', 'Computer Modern Sans Serif', 'Lucida Grande', 'Verdana', 'Geneva', 'Lucid', 'Arial', 'Helvetica', 'Avant Garde', sans-serif; text-anchor: start" x="572.785938" y="204.213438" transform="rotate(-0 572.785938 204.213438)">B. No action repeat</text>
    </g>
    <g id="line2d_34">
     <path d="M 544.785938 215.391563 
L 554.785938 215.391563 
L 564.785938 215.391563 
" style="fill: none; stroke: #2ca02c; stroke-width: 1.5; stroke-linecap: square"/>
    </g>
    <g id="text_17">
     <text style="font-size: 10px; font-family: 'DejaVu Sans', 'Bitstream Vera Sans', 'Computer Modern Sans Serif', 'Lucida Grande', 'Verdana', 'Geneva', 'Lucid', 'Arial', 'Helvetica', 'Avant Garde', sans-serif; text-anchor: start" x="572.785938" y="218.891563" transform="rotate(-0 572.785938 218.891563)">C. Domain randomization</text>
    </g>
    <g id="line2d_35">
     <path d="M 544.785938 230.069688 
L 554.785938 230.069688 
L 564.785938 230.069688 
" style="fill: none; stroke: #d62728; stroke-width: 1.5; stroke-linecap: square"/>
    </g>
    <g id="text_18">
     <text style="font-size: 10px; font-family: 'DejaVu Sans', 'Bitstream Vera Sans', 'Computer Modern Sans Serif', 'Lucida Grande', 'Verdana', 'Geneva', 'Lucid', 'Arial', 'Helvetica', 'Avant Garde', sans-serif; text-anchor: start" x="572.785938" y="233.569688" transform="rotate(-0 572.785938 233.569688)">D. No early termination</text>
    </g>
    <g id="line2d_36">
     <path d="M 544.785938 244.747813 
L 554.785938 244.747813 
L 564.785938 244.747813 
" style="fill: none; stroke: #9467bd; stroke-width: 1.5; stroke-linecap: square"/>
    </g>
    <g id="text_19">
     <text style="font-size: 10px; font-family: 'DejaVu Sans', 'Bitstream Vera Sans', 'Computer Modern Sans Serif', 'Lucida Grande', 'Verdana', 'Geneva', 'Lucid', 'Arial', 'Helvetica', 'Avant Garde', sans-serif; text-anchor: start" x="572.785938" y="248.247813" transform="rotate(-0 572.785938 248.247813)">E. Action history</text>
    </g>
    <g id="line2d_37">
     <path d="M 544.785938 259.425938 
L 554.785938 259.425938 
L 564.785938 259.425938 
" style="fill: none; stroke: #8c564b; stroke-width: 1.5; stroke-linecap: square"/>
    </g>
    <g id="text_20">
     <text style="font-size: 10px; font-family: 'DejaVu Sans', 'Bitstream Vera Sans', 'Computer Modern Sans Serif', 'Lucida Grande', 'Verdana', 'Geneva', 'Lucid', 'Arial', 'Helvetica', 'Avant Garde', sans-serif; text-anchor: start" x="572.785938" y="262.925938" transform="rotate(-0 572.785938 262.925938)">F. Dirichlet</text>
    </g>
    <g id="line2d_38">
     <path d="M 544.785938 274.104063 
L 554.785938 274.104063 
L 564.785938 274.104063 
" style="fill: none; stroke: #e377c2; stroke-width: 1.5; stroke-linecap: square"/>
    </g>
    <g id="text_21">
     <text style="font-size: 10px; font-family: 'DejaVu Sans', 'Bitstream Vera Sans', 'Computer Modern Sans Serif', 'Lucida Grande', 'Verdana', 'Geneva', 'Lucid', 'Arial', 'Helvetica', 'Avant Garde', sans-serif; text-anchor: start" x="572.785938" y="277.604063" transform="rotate(-0 572.785938 277.604063)">G. Multi-categorical</text>
    </g>
    <g id="line2d_39">
     <path d="M 544.785938 288.782188 
L 554.785938 288.782188 
L 564.785938 288.782188 
" style="fill: none; stroke: #7f7f7f; stroke-width: 1.5; stroke-linecap: square"/>
    </g>
    <g id="text_22">
     <text style="font-size: 10px; font-family: 'DejaVu Sans', 'Bitstream Vera Sans', 'Computer Modern Sans Serif', 'Lucida Grande', 'Verdana', 'Geneva', 'Lucid', 'Arial', 'Helvetica', 'Avant Garde', sans-serif; text-anchor: start" x="572.785938" y="292.282188" transform="rotate(-0 572.785938 292.282188)">H. Normal</text>
    </g>
    <g id="line2d_40">
     <path d="M 544.785938 303.460312 
L 554.785938 303.460312 
L 564.785938 303.460312 
" style="fill: none; stroke: #bcbd22; stroke-width: 1.5; stroke-linecap: square"/>
    </g>
    <g id="text_23">
     <text style="font-size: 10px; font-family: 'DejaVu Sans', 'Bitstream Vera Sans', 'Computer Modern Sans Serif', 'Lucida Grande', 'Verdana', 'Geneva', 'Lucid', 'Arial', 'Helvetica', 'Avant Garde', sans-serif; text-anchor: start" x="572.785938" y="306.960312" transform="rotate(-0 572.785938 306.960312)">I. Normal-Tanh</text>
    </g>
   </g>
  </g>
 </g>
 <defs>
  <clipPath id="p7e94c3ea64">
   <rect x="50.87" y="10.8" width="658.33" height="307.24"/>
  </clipPath>
 </defs>
</svg>
